<svg width="1280" height="486" xmlns="http://www.w3.org/2000/svg" xmlns:xlink="http://www.w3.org/1999/xlink" xml:space="preserve" overflow="hidden"><defs><clipPath id="clip0"><rect x="0" y="16" width="1280" height="486"/></clipPath><clipPath id="clip1"><rect x="0" y="16" width="1280" height="486"/></clipPath><clipPath id="clip2"><rect x="0" y="17" width="1280" height="485"/></clipPath><clipPath id="clip3"><rect x="-1" y="17" width="1281" height="485"/></clipPath><linearGradient x1="809.453" y1="340.02" x2="1484.19" y2="-49.5397" gradientUnits="userSpaceOnUse" spreadMethod="pad" id="stroke4"><stop offset="0" stop-color="#44AEDB" stop-opacity="1"/><stop offset="1" stop-color="#D53484" stop-opacity="1"/></linearGradient><linearGradient x1="814.674" y1="347.835" x2="1480.26" y2="-36.4674" gradientUnits="userSpaceOnUse" spreadMethod="pad" id="stroke5"><stop offset="0" stop-color="#44AEDB" stop-opacity="1"/><stop offset="1" stop-color="#D53484" stop-opacity="1"/></linearGradient><linearGradient x1="819.675" y1="355.296" x2="1476.1" y2="-23.7453" gradientUnits="userSpaceOnUse" spreadMethod="pad" id="stroke6"><stop offset="0" stop-color="#44AEDB" stop-opacity="1"/><stop offset="1" stop-color="#D53484" stop-opacity="1"/></linearGradient><linearGradient x1="824.572" y1="362.679" x2="1471.86" y2="-11.1024" gradientUnits="userSpaceOnUse" spreadMethod="pad" id="stroke7"><stop offset="0" stop-color="#44AEDB" stop-opacity="1"/><stop offset="1" stop-color="#D53484" stop-opacity="1"/></linearGradient><linearGradient x1="829.387" y1="370.212" x2="1467.58" y2="1.80583" gradientUnits="userSpaceOnUse" spreadMethod="pad" id="stroke8"><stop offset="0" stop-color="#44AEDB" stop-opacity="1"/><stop offset="1" stop-color="#D53484" stop-opacity="1"/></linearGradient><linearGradient x1="834.251" y1="377.598" x2="1463.27" y2="14.4579" gradientUnits="userSpaceOnUse" spreadMethod="pad" id="stroke9"><stop offset="0" stop-color="#44AEDB" stop-opacity="1"/><stop offset="1" stop-color="#D53484" stop-opacity="1"/></linearGradient><linearGradient x1="839.101" y1="384.981" x2="1458.93" y2="27.1186" gradientUnits="userSpaceOnUse" spreadMethod="pad" id="stroke10"><stop offset="0" stop-color="#44AEDB" stop-opacity="1"/><stop offset="1" stop-color="#D53484" stop-opacity="1"/></linearGradient><linearGradient x1="843.924" y1="392.362" x2="1454.56" y2="39.7822" gradientUnits="userSpaceOnUse" spreadMethod="pad" id="stroke11"><stop offset="0" stop-color="#44AEDB" stop-opacity="1"/><stop offset="1" stop-color="#D53484" stop-opacity="1"/></linearGradient><linearGradient x1="848.727" y1="399.73" x2="1450.16" y2="52.4493" gradientUnits="userSpaceOnUse" spreadMethod="pad" id="stroke12"><stop offset="0" stop-color="#44AEDB" stop-opacity="1"/><stop offset="1" stop-color="#D53484" stop-opacity="1"/></linearGradient><linearGradient x1="853.517" y1="407.09" x2="1445.72" y2="65.108" gradientUnits="userSpaceOnUse" spreadMethod="pad" id="stroke13"><stop offset="0" stop-color="#44AEDB" stop-opacity="1"/><stop offset="1" stop-color="#D53484" stop-opacity="1"/></linearGradient><linearGradient x1="858.203" y1="414.604" x2="1441.24" y2="78.0266" gradientUnits="userSpaceOnUse" spreadMethod="pad" id="stroke14"><stop offset="0" stop-color="#44AEDB" stop-opacity="1"/><stop offset="1" stop-color="#D53484" stop-opacity="1"/></linearGradient><linearGradient x1="862.956" y1="421.953" x2="1436.75" y2="90.6947" gradientUnits="userSpaceOnUse" spreadMethod="pad" id="stroke15"><stop offset="0" stop-color="#44AEDB" stop-opacity="1"/><stop offset="1" stop-color="#D53484" stop-opacity="1"/></linearGradient><linearGradient x1="867.684" y1="429.295" x2="1432.21" y2="103.361" gradientUnits="userSpaceOnUse" spreadMethod="pad" id="stroke16"><stop offset="0" stop-color="#44AEDB" stop-opacity="1"/><stop offset="1" stop-color="#D53484" stop-opacity="1"/></linearGradient><linearGradient x1="872.396" y1="436.625" x2="1427.65" y2="116.022" gradientUnits="userSpaceOnUse" spreadMethod="pad" id="stroke17"><stop offset="0" stop-color="#44AEDB" stop-opacity="1"/><stop offset="1" stop-color="#D53484" stop-opacity="1"/></linearGradient><linearGradient x1="877.086" y1="443.943" x2="1423.06" y2="128.677" gradientUnits="userSpaceOnUse" spreadMethod="pad" id="stroke18"><stop offset="0" stop-color="#44AEDB" stop-opacity="1"/><stop offset="1" stop-color="#D53484" stop-opacity="1"/></linearGradient><linearGradient x1="881.675" y1="451.398" x2="1418.4" y2="141.579" gradientUnits="userSpaceOnUse" spreadMethod="pad" id="stroke19"><stop offset="0" stop-color="#44AEDB" stop-opacity="1"/><stop offset="1" stop-color="#D53484" stop-opacity="1"/></linearGradient><linearGradient x1="886.327" y1="458.695" x2="1413.75" y2="154.223" gradientUnits="userSpaceOnUse" spreadMethod="pad" id="stroke20"><stop offset="0" stop-color="#44AEDB" stop-opacity="1"/><stop offset="1" stop-color="#D53484" stop-opacity="1"/></linearGradient><linearGradient x1="890.962" y1="465.976" x2="1409.06" y2="166.863" gradientUnits="userSpaceOnUse" spreadMethod="pad" id="stroke21"><stop offset="0" stop-color="#44AEDB" stop-opacity="1"/><stop offset="1" stop-color="#D53484" stop-opacity="1"/></linearGradient><linearGradient x1="895.577" y1="473.239" x2="1404.34" y2="179.497" gradientUnits="userSpaceOnUse" spreadMethod="pad" id="stroke22"><stop offset="0" stop-color="#44AEDB" stop-opacity="1"/><stop offset="1" stop-color="#D53484" stop-opacity="1"/></linearGradient><linearGradient x1="900.162" y1="480.485" x2="1399.59" y2="192.117" gradientUnits="userSpaceOnUse" spreadMethod="pad" id="stroke23"><stop offset="0" stop-color="#44AEDB" stop-opacity="1"/><stop offset="1" stop-color="#D53484" stop-opacity="1"/></linearGradient><linearGradient x1="904.731" y1="487.722" x2="1394.81" y2="204.733" gradientUnits="userSpaceOnUse" spreadMethod="pad" id="stroke24"><stop offset="0" stop-color="#44AEDB" stop-opacity="1"/><stop offset="1" stop-color="#D53484" stop-opacity="1"/></linearGradient><linearGradient x1="909.176" y1="495.103" x2="1389.94" y2="217.579" gradientUnits="userSpaceOnUse" spreadMethod="pad" id="stroke25"><stop offset="0" stop-color="#44AEDB" stop-opacity="1"/><stop offset="1" stop-color="#D53484" stop-opacity="1"/></linearGradient><linearGradient x1="732.432" y1="144.843" x2="57.6957" y2="534.403" gradientUnits="userSpaceOnUse" spreadMethod="pad" id="stroke26"><stop offset="0" stop-color="#44AEDB" stop-opacity="1"/><stop offset="1" stop-color="#D53484" stop-opacity="1"/></linearGradient><linearGradient x1="727.523" y1="137.16" x2="61.9267" y2="521.468" gradientUnits="userSpaceOnUse" spreadMethod="pad" id="stroke27"><stop offset="0" stop-color="#44AEDB" stop-opacity="1"/><stop offset="1" stop-color="#D53484" stop-opacity="1"/></linearGradient><linearGradient x1="722.686" y1="129.639" x2="66.2593" y2="508.68" gradientUnits="userSpaceOnUse" spreadMethod="pad" id="stroke28"><stop offset="0" stop-color="#44AEDB" stop-opacity="1"/><stop offset="1" stop-color="#D53484" stop-opacity="1"/></linearGradient><linearGradient x1="717.932" y1="122.251" x2="70.68" y2="496.021" gradientUnits="userSpaceOnUse" spreadMethod="pad" id="stroke29"><stop offset="0" stop-color="#44AEDB" stop-opacity="1"/><stop offset="1" stop-color="#D53484" stop-opacity="1"/></linearGradient><linearGradient x1="713.242" y1="114.909" x2="75.0938" y2="483.297" gradientUnits="userSpaceOnUse" spreadMethod="pad" id="stroke30"><stop offset="0" stop-color="#44AEDB" stop-opacity="1"/><stop offset="1" stop-color="#D53484" stop-opacity="1"/></linearGradient><linearGradient x1="708.524" y1="107.53" x2="79.5522" y2="470.646" gradientUnits="userSpaceOnUse" spreadMethod="pad" id="stroke31"><stop offset="0" stop-color="#44AEDB" stop-opacity="1"/><stop offset="1" stop-color="#D53484" stop-opacity="1"/></linearGradient><linearGradient x1="703.796" y1="100.145" x2="84.0196" y2="457.978" gradientUnits="userSpaceOnUse" spreadMethod="pad" id="stroke32"><stop offset="0" stop-color="#44AEDB" stop-opacity="1"/><stop offset="1" stop-color="#D53484" stop-opacity="1"/></linearGradient><linearGradient x1="699.069" y1="92.7609" x2="88.4898" y2="445.306" gradientUnits="userSpaceOnUse" spreadMethod="pad" id="stroke33"><stop offset="0" stop-color="#44AEDB" stop-opacity="1"/><stop offset="1" stop-color="#D53484" stop-opacity="1"/></linearGradient><linearGradient x1="694.336" y1="85.3755" x2="92.9756" y2="432.622" gradientUnits="userSpaceOnUse" spreadMethod="pad" id="stroke34"><stop offset="0" stop-color="#44AEDB" stop-opacity="1"/><stop offset="1" stop-color="#D53484" stop-opacity="1"/></linearGradient><linearGradient x1="689.602" y1="78.001" x2="97.4649" y2="419.943" gradientUnits="userSpaceOnUse" spreadMethod="pad" id="stroke35"><stop offset="0" stop-color="#44AEDB" stop-opacity="1"/><stop offset="1" stop-color="#D53484" stop-opacity="1"/></linearGradient><linearGradient x1="684.905" y1="70.6471" x2="101.947" y2="407.179" gradientUnits="userSpaceOnUse" spreadMethod="pad" id="stroke36"><stop offset="0" stop-color="#44AEDB" stop-opacity="1"/><stop offset="1" stop-color="#D53484" stop-opacity="1"/></linearGradient><linearGradient x1="680.166" y1="63.2655" x2="106.453" y2="394.478" gradientUnits="userSpaceOnUse" spreadMethod="pad" id="stroke37"><stop offset="0" stop-color="#44AEDB" stop-opacity="1"/><stop offset="1" stop-color="#D53484" stop-opacity="1"/></linearGradient><linearGradient x1="675.425" y1="55.8863" x2="110.968" y2="381.781" gradientUnits="userSpaceOnUse" spreadMethod="pad" id="stroke38"><stop offset="0" stop-color="#44AEDB" stop-opacity="1"/><stop offset="1" stop-color="#D53484" stop-opacity="1"/></linearGradient><linearGradient x1="670.681" y1="48.5087" x2="115.487" y2="369.072" gradientUnits="userSpaceOnUse" spreadMethod="pad" id="stroke39"><stop offset="0" stop-color="#44AEDB" stop-opacity="1"/><stop offset="1" stop-color="#D53484" stop-opacity="1"/></linearGradient><linearGradient x1="665.928" y1="41.144" x2="120.017" y2="356.378" gradientUnits="userSpaceOnUse" spreadMethod="pad" id="stroke40"><stop offset="0" stop-color="#44AEDB" stop-opacity="1"/><stop offset="1" stop-color="#D53484" stop-opacity="1"/></linearGradient><linearGradient x1="661.223" y1="33.8084" x2="124.541" y2="343.6" gradientUnits="userSpaceOnUse" spreadMethod="pad" id="stroke41"><stop offset="0" stop-color="#44AEDB" stop-opacity="1"/><stop offset="1" stop-color="#D53484" stop-opacity="1"/></linearGradient><linearGradient x1="656.464" y1="26.4474" x2="129.088" y2="330.898" gradientUnits="userSpaceOnUse" spreadMethod="pad" id="stroke42"><stop offset="0" stop-color="#44AEDB" stop-opacity="1"/><stop offset="1" stop-color="#D53484" stop-opacity="1"/></linearGradient><linearGradient x1="651.705" y1="19.1034" x2="133.638" y2="318.194" gradientUnits="userSpaceOnUse" spreadMethod="pad" id="stroke43"><stop offset="0" stop-color="#44AEDB" stop-opacity="1"/><stop offset="1" stop-color="#D53484" stop-opacity="1"/></linearGradient><linearGradient x1="646.94" y1="11.7633" x2="138.192" y2="305.494" gradientUnits="userSpaceOnUse" spreadMethod="pad" id="stroke44"><stop offset="0" stop-color="#44AEDB" stop-opacity="1"/><stop offset="1" stop-color="#D53484" stop-opacity="1"/></linearGradient><linearGradient x1="642.173" y1="4.43883" x2="142.762" y2="292.802" gradientUnits="userSpaceOnUse" spreadMethod="pad" id="stroke45"><stop offset="0" stop-color="#44AEDB" stop-opacity="1"/><stop offset="1" stop-color="#D53484" stop-opacity="1"/></linearGradient><linearGradient x1="637.406" y1="-2.87116" x2="147.33" y2="280.118" gradientUnits="userSpaceOnUse" spreadMethod="pad" id="stroke46"><stop offset="0" stop-color="#44AEDB" stop-opacity="1"/><stop offset="1" stop-color="#D53484" stop-opacity="1"/></linearGradient><linearGradient x1="632.692" y1="-10.1513" x2="151.929" y2="267.366" gradientUnits="userSpaceOnUse" spreadMethod="pad" id="stroke47"><stop offset="0" stop-color="#44AEDB" stop-opacity="1"/><stop offset="1" stop-color="#D53484" stop-opacity="1"/></linearGradient></defs><g clip-path="url(#clip0)" transform="matrix(1 0 0 1 0 -16)"><g clip-path="url(#clip1)"><g clip-path="url(#clip2)"><g clip-path="url(#clip3)"><g><path d="M757.806 250.501C782.884 231.824 803.163 227.105 829.978 209.728 833.36 207.535 837.161 205.36 841.688 204.997 851.668 204.202 858.413 212.21 860.785 219.239 863.156 226.267 864.709 234.497 873.222 238.329 885.826 244.002 901.214 235.391 911.187 227.456 921.308 219.405 931.435 211.354 941.556 203.303 947.427 198.633 953.532 193.841 961.509 191.272 969.486 188.703 979.909 188.949 985.86 193.563 997.176 202.335 988.065 221.58 1003.89 225.245 1007.88 226.169 1012.3 225.516 1016.07 224.192 1031.27 218.869 1042.8 202.976 1058.43 207.621 1062.79 208.914 1065.94 211.668 1069.78 213.627 1085.73 221.758 1108.29 214.311 1121.88 204.196 1135.46 194.081 1145.94 181.021 1163.58 174.96 1167.19 173.715 1171.22 172.798 1175.16 173.278 1184.36 174.405 1188.68 182.136 1196.46 185.857 1207.49 191.142 1222.61 187.175 1233.11 181.354 1243.61 175.533 1252.64 167.82 1265.18 164.74 1275.44 162.221 1286.75 163.163 1297.21 161.149 1314.21 157.878 1326.38 147.498 1338.15 138.079 1392.13 94.8905 1460.77 61.2871 1536.4 41.0449" stroke="url(#stroke4)" stroke-width="0.616012" stroke-linecap="butt" stroke-linejoin="miter" stroke-miterlimit="10" fill="none" fill-rule="nonzero" transform="matrix(1 0 0 1.00027 -130.943 17)"/><path d="M757.806 249.571C766.135 244.193 773.939 240.3 781.541 236.9 789.143 233.499 797.219 230.413 805.59 226.711 812.551 223.631 819.728 219.972 827.298 215.456 828.703 214.625 830.12 213.762 831.549 212.869 835.066 210.682 838.978 208.52 843.58 208.077 853.627 207.14 860.594 214.594 863.397 221.111 865.91 227.013 867.85 233.851 874.602 237.972 875.323 238.409 876.093 238.816 876.924 239.191 882.142 241.538 887.6 241.853 892.848 240.941 898.097 240.029 902.748 238.132 907.214 235.729 909.721 234.38 912.086 232.896 914.292 231.387 920.495 227.148 926.926 222.454 933.216 217.723 937.454 214.532 941.704 211.317 945.961 208.2 947.988 206.715 950.039 205.225 952.183 203.857 956.562 201.06 961.146 198.719 966.474 197.383 974.451 195.381 984.646 196.237 990.887 200.931 992.032 201.799 993.006 202.76 993.825 203.789 998.716 209.906 998.322 218.419 1001.53 224.672 1003.21 227.968 1005.84 230.617 1010.69 231.929 1014.69 233.013 1019.05 232.668 1022.83 231.651 1023.78 231.393 1024.72 231.097 1025.65 230.758 1039.5 225.701 1051.16 212.925 1066.21 217.237 1070.49 218.463 1073.62 221.111 1077.41 222.984 1093.16 230.752 1115.2 223.625 1128.69 213.929 1139.87 205.877 1148.99 195.88 1161.68 189.368 1164.27 188.044 1167.01 186.867 1169.94 185.882 1173.5 184.687 1177.45 183.806 1181.32 184.262 1190.34 185.327 1194.71 192.701 1202.36 196.28 1213.24 201.362 1228.02 197.666 1238.39 192.239 1248.73 186.8 1257.68 179.586 1269.96 176.808 1280.01 174.541 1291.08 175.582 1301.34 173.814 1317.94 170.919 1329.95 161.278 1341.58 152.549 1395.03 112.619 1462.41 81.8742 1536.63 61.9893" stroke="url(#stroke5)" stroke-width="0.677614" stroke-linecap="butt" stroke-linejoin="miter" stroke-miterlimit="10" fill="none" fill-rule="nonzero" transform="matrix(1 0 0 1.00027 -130.943 17)"/><path d="M757.806 248.647C766.282 243.984 774.217 240.799 781.886 238.046 789.555 235.292 797.644 232.89 806.323 229.526 813.543 226.729 820.978 223.064 828.734 218.592 830.181 217.76 831.647 216.904 833.126 216.017 836.773 213.843 840.795 211.674 845.477 211.163 855.586 210.066 862.799 216.972 866.009 222.984 868.91 228.417 871.282 234.781 878.23 238.828 878.982 239.265 879.777 239.672 880.62 240.054 886.004 242.475 891.431 243.122 896.507 242.653 901.583 242.185 905.982 240.861 910.337 238.939 912.782 237.861 915.123 236.623 917.396 235.311 923.747 231.645 930.567 227.074 937.103 222.417 941.507 219.282 945.936 216.091 950.378 213.085 952.497 211.656 954.628 210.233 956.864 208.982 961.472 206.401 966.129 204.436 971.445 203.487 979.429 202.058 989.402 203.5 995.919 208.292 997.102 209.161 998.112 210.116 998.993 211.126 1004.2 217.095 1004.43 225.091 1008.04 231.196 1009.95 234.442 1012.7 237.109 1017.49 238.594 1021.51 239.838 1025.81 239.814 1029.59 239.087 1030.55 238.902 1031.49 238.686 1032.42 238.415 1046.25 234.423 1058.54 222.553 1074.01 226.816 1078.21 227.974 1081.31 230.518 1085.04 232.298 1100.6 239.703 1122.13 232.896 1135.53 223.625 1146.58 215.925 1155.69 206.364 1168.19 200.118 1170.74 198.843 1173.44 197.715 1176.32 196.767 1179.82 195.621 1183.7 194.771 1187.51 195.202 1196.35 196.206 1200.76 203.229 1208.28 206.66 1219.03 211.539 1233.46 208.12 1243.7 203.081 1253.89 198.029 1262.74 191.315 1274.76 188.832 1284.63 186.818 1295.45 187.976 1305.49 186.442 1321.71 183.96 1333.53 174.991 1345.03 166.989 1397.86 130.188 1464.06 102.424 1536.89 82.9029" stroke="url(#stroke6)" stroke-width="0.733055" stroke-linecap="butt" stroke-linejoin="miter" stroke-miterlimit="10" fill="none" fill-rule="nonzero" transform="matrix(1 0 0 1.00027 -130.943 17)"/><path d="M757.806 247.723C766.43 243.775 774.494 241.298 782.231 239.185 789.968 237.072 798.062 235.36 807.062 232.335 814.547 229.822 822.229 226.132 830.169 221.721 831.666 220.89 833.175 220.046 834.697 219.165 838.473 216.997 842.612 214.834 847.368 214.249 857.545 213.005 864.986 219.35 868.62 224.863 871.898 229.834 874.719 235.705 881.865 239.69 882.641 240.122 883.46 240.534 884.323 240.922 889.873 243.417 895.281 244.212 900.167 244.372 905.051 244.532 909.203 243.596 913.46 242.161 915.844 241.36 918.16 240.362 920.501 239.247 926.994 236.154 934.207 231.701 940.984 227.118 945.548 224.031 950.156 220.865 954.782 217.976 956.987 216.602 959.211 215.253 961.534 214.12 966.369 211.76 971.106 210.165 976.404 209.598 984.388 208.742 994.133 210.775 1000.94 215.666 1002.15 216.535 1003.21 217.477 1004.16 218.475 1009.68 224.296 1010.54 231.781 1014.54 237.738 1016.69 240.929 1019.55 243.627 1024.27 245.278 1028.32 246.688 1032.56 246.972 1036.35 246.547 1037.3 246.442 1038.25 246.3 1039.19 246.097 1053 243.159 1065.92 232.212 1081.79 236.426 1085.93 237.522 1089 239.955 1092.68 241.649 1108.04 248.684 1129.05 242.204 1142.36 233.352 1153.3 226.009 1162.4 216.879 1174.69 210.892 1177.21 209.672 1179.87 208.588 1182.69 207.682 1186.14 206.586 1189.95 205.773 1193.68 206.179 1202.34 207.128 1206.79 213.793 1214.2 217.077 1224.81 221.746 1238.9 218.623 1249 213.953 1259.04 209.309 1267.8 203.075 1279.56 200.888 1289.22 199.126 1299.8 200.395 1309.63 199.101 1325.46 197.013 1337.11 188.752 1348.47 181.453 1400.74 147.849 1465.71 123.005 1537.14 103.841" stroke="url(#stroke7)" stroke-width="0.794656" stroke-linecap="butt" stroke-linejoin="miter" stroke-miterlimit="10" fill="none" fill-rule="nonzero" transform="matrix(1 0 0 1.00027 -130.943 17)"/><path d="M757.806 246.799C766.584 243.565 774.765 241.791 782.576 240.331 790.559 238.834 798.487 237.842 807.795 235.157 815.539 232.92 823.479 229.231 831.604 224.869 833.144 224.044 834.703 223.2 836.274 222.325 840.185 220.169 844.43 218.007 849.265 217.348 859.51 215.955 867.179 221.74 871.232 226.754 874.879 231.263 878.163 236.647 885.493 240.559 886.3 240.99 887.144 241.403 888.025 241.797 893.741 244.366 899.125 245.69 903.832 246.097 908.427 246.497 912.425 246.343 916.589 245.389 918.906 244.859 921.203 244.107 923.612 243.189 930.24 240.67 937.854 236.339 944.87 231.83 949.602 228.793 954.388 225.651 959.199 222.879 961.497 221.561 963.807 220.28 966.215 219.263 971.285 217.12 976.096 215.906 981.375 215.715 989.371 215.432 998.883 218.062 1005.97 223.04 1007.22 223.914 1008.33 224.844 1009.32 225.824 1015.15 231.497 1016.65 238.471 1021.06 244.28 1023.44 247.421 1026.41 250.144 1031.08 251.961 1035.14 253.538 1039.32 254.136 1043.12 254.007 1044.07 253.976 1045.02 253.914 1045.97 253.785 1059.74 251.9 1073.3 241.883 1089.58 246.041 1093.64 247.076 1096.69 249.393 1100.32 251 1115.48 257.672 1135.99 251.542 1149.18 243.085 1160.03 236.124 1169.1 227.407 1181.19 221.672 1183.68 220.502 1186.29 219.467 1189.07 218.598 1192.47 217.545 1196.2 216.775 1199.86 217.151 1208.33 218.038 1212.84 224.346 1220.12 227.481 1230.58 231.947 1244.33 229.107 1254.3 224.82 1264.19 220.563 1272.85 214.797 1284.35 212.937 1293.82 211.403 1304.16 212.808 1313.78 211.754 1329.22 210.06 1340.7 202.502 1351.91 195.91 1403.63 165.498 1467.35 143.58 1537.39 124.779" stroke="url(#stroke8)" stroke-width="0.850097" stroke-linecap="butt" stroke-linejoin="miter" stroke-miterlimit="10" fill="none" fill-rule="nonzero" transform="matrix(1 0 0 1.00027 -130.943 17)"/><path d="M757.806 245.869C766.732 243.35 775.036 242.278 782.921 241.465 790.923 240.639 798.906 240.306 808.529 237.959 816.537 236.007 824.73 232.304 833.034 227.992 834.623 227.167 836.224 226.329 837.838 225.467 841.873 223.311 846.235 221.161 851.15 220.434 861.456 218.9 869.354 224.124 873.838 228.627 877.855 232.668 881.6 237.559 889.121 241.415 889.959 241.84 890.822 242.253 891.721 242.66 897.604 245.302 902.976 246.965 907.491 247.809 912.006 248.653 915.622 249.072 919.713 248.598 921.955 248.339 924.234 247.834 926.717 247.113 933.474 245.161 941.495 240.959 948.751 236.524 953.649 233.536 958.608 230.419 963.603 227.771 965.987 226.508 968.39 225.3 970.885 224.401 976.195 222.479 981.08 221.635 986.334 221.832 994.336 222.128 1003.61 225.35 1010.99 230.413 1012.27 231.288 1013.42 232.212 1014.49 233.173 1020.62 238.705 1022.77 245.154 1027.56 250.822 1030.18 253.914 1033.26 256.668 1037.88 258.651 1041.95 260.401 1046.08 261.3 1049.88 261.466 1050.83 261.51 1051.78 261.528 1052.73 261.466 1066.46 260.622 1080.66 251.549 1097.36 255.651 1101.34 256.631 1104.37 258.83 1107.95 260.351 1122.9 266.659 1142.91 260.863 1156 252.811 1166.74 246.208 1175.79 237.922 1187.68 232.452 1190.14 231.331 1192.71 230.345 1195.43 229.52 1198.78 228.516 1202.44 227.783 1206.03 228.134 1214.31 228.959 1218.87 234.916 1226.03 237.904 1236.34 242.161 1249.75 239.604 1259.59 235.705 1269.33 231.842 1277.9 226.563 1289.14 225.005 1298.41 223.717 1308.5 225.233 1317.92 224.419 1332.96 223.12 1344.28 216.27 1355.35 210.381 1406.53 183.165 1468.99 164.161 1537.64 145.724" stroke="url(#stroke9)" stroke-width="0.911698" stroke-linecap="butt" stroke-linejoin="miter" stroke-miterlimit="10" fill="none" fill-rule="nonzero" transform="matrix(1 0 0 1.00027 -130.943 17)"/><path d="M757.806 244.945C766.886 243.14 775.307 243.103 783.266 242.61 791.225 242.117 799.331 242.783 809.268 240.775 817.535 239.105 825.992 235.397 834.475 231.134 836.107 230.315 837.758 229.477 839.422 228.621 843.592 226.471 848.064 224.333 853.054 223.526 863.428 221.851 871.547 226.508 876.456 230.512 880.842 234.091 885.05 238.489 892.756 242.284 893.618 242.709 894.511 243.122 895.423 243.534 901.472 246.251 906.832 248.265 911.15 249.534 915.468 250.803 918.844 252.3 922.836 251.826 924.979 251.573 927.265 251.579 929.821 251.062 936.696 249.67 945.135 245.598 952.632 241.243 957.69 238.311 962.827 235.218 968.014 232.68 970.49 231.473 972.979 230.339 975.56 229.551 981.111 227.851 986.063 227.382 991.306 227.955 999.32 228.83 1008.36 232.643 1016.03 237.799 1017.34 238.674 1018.54 239.592 1019.66 240.534 1026.1 245.918 1028.9 251.85 1034.08 257.37 1036.93 260.407 1040.12 263.204 1044.68 265.341 1048.77 267.263 1052.83 268.464 1056.64 268.932 1057.59 269.05 1058.54 269.197 1059.5 269.154 1073.17 268.625 1088.04 261.232 1105.16 265.267 1109.06 266.185 1112.07 268.273 1115.59 269.709 1130.35 275.653 1149.84 270.183 1162.83 262.551 1173.46 256.31 1182.48 248.425 1194.19 243.239 1196.61 242.167 1199.14 241.23 1201.82 240.442 1205.11 239.487 1208.69 238.785 1212.21 239.111 1220.31 239.875 1224.9 245.493 1231.96 248.321 1242.11 252.393 1255.19 250.095 1264.9 246.584 1274.6 243.072 1282.96 238.323 1293.95 237.066 1303.03 236.025 1312.86 237.658 1322.07 237.085 1336.73 236.173 1347.87 230.037 1358.8 224.851 1409.44 200.832 1470.65 184.748 1537.9 166.668" stroke="url(#stroke10)" stroke-width="0.967139" stroke-linecap="butt" stroke-linejoin="miter" stroke-miterlimit="10" fill="none" fill-rule="nonzero" transform="matrix(1 0 0 1.00027 -130.943 17)"/><path d="M757.806 244.021C767.034 242.931 775.553 243.245 783.611 243.756 791.631 244.261 799.75 245.259 810.001 243.59 818.533 242.198 827.243 238.489 835.904 234.269 837.586 233.45 839.28 232.619 840.992 231.768 845.292 229.625 849.875 227.493 854.945 226.612 865.386 224.789 873.721 228.886 879.062 232.391 883.811 235.508 888.487 239.413 896.384 243.146 897.277 243.571 898.189 243.984 899.119 244.403 905.329 247.193 910.682 249.565 914.809 251.253 918.936 252.941 921.998 254.53 925.959 255.048 928.035 255.319 930.29 255.312 932.926 254.998 939.918 254.167 948.77 250.23 956.513 245.949 961.737 243.066 967.053 239.998 972.419 237.577 974.981 236.426 977.562 235.372 980.23 234.695 986.014 233.222 991.047 233.124 996.264 234.072 1004.29 235.532 1013.09 239.931 1021.05 245.173 1022.39 246.054 1023.63 246.959 1024.82 247.883 1031.57 253.126 1035.02 258.534 1040.59 263.912 1043.67 266.9 1046.97 269.733 1051.47 272.025 1055.58 274.119 1059.58 275.616 1063.4 276.386 1064.35 276.577 1065.3 276.75 1066.27 276.836 1079.89 278.037 1095.41 270.91 1112.94 274.871 1116.77 275.739 1119.76 277.705 1123.22 279.047 1137.78 284.628 1156.76 279.485 1169.66 272.265 1180.17 266.382 1189.17 258.928 1200.69 254 1203.07 252.978 1205.57 252.091 1208.19 251.345 1211.43 250.44 1214.94 249.775 1218.39 250.076 1226.3 250.785 1230.94 256.046 1237.87 258.725 1247.89 262.594 1260.62 260.573 1270.19 257.444 1279.77 254.315 1288.01 250.064 1298.74 249.109 1307.62 248.321 1317.21 250.058 1326.21 249.731 1340.47 249.214 1351.46 243.787 1362.24 239.308 1412.36 218.487 1472.29 205.323 1538.15 187.6" stroke="url(#stroke11)" stroke-width="1.02874" stroke-linecap="butt" stroke-linejoin="miter" stroke-miterlimit="10" fill="none" fill-rule="nonzero" transform="matrix(1 0 0 1.00027 -130.943 17)"/><path d="M757.806 243.097C767.188 242.721 775.812 243.725 783.956 244.896 791.982 246.054 800.169 247.736 810.74 246.399 819.531 245.29 828.5 241.575 837.346 237.399 839.07 236.586 840.814 235.76 842.569 234.916 846.998 232.785 851.692 230.66 856.842 229.699 867.345 227.74 875.902 231.27 881.68 234.269 886.793 236.924 891.937 240.331 900.019 244.002 900.943 244.421 901.879 244.84 902.821 245.265 909.197 248.13 914.544 250.871 918.468 252.959 922.392 255.048 925.17 257.222 929.082 258.251 931.072 258.774 933.32 259.027 936.031 258.916 943.14 258.633 952.41 254.838 960.394 250.637 965.784 247.803 971.273 244.76 976.823 242.462 979.472 241.366 982.145 240.387 984.899 239.82 990.924 238.575 996.03 238.853 1001.22 240.177 1009.26 242.222 1017.82 247.206 1026.07 252.534 1027.44 253.415 1028.73 254.315 1029.98 255.214 1037.03 260.314 1041.14 265.193 1047.09 270.436 1050.41 273.368 1053.81 276.245 1058.25 278.69 1062.38 280.963 1066.32 282.756 1070.15 283.828 1071.1 284.093 1072.05 284.339 1073.03 284.499 1086.59 286.704 1102.76 280.575 1120.72 284.462 1124.47 285.275 1127.43 287.123 1130.84 288.38 1145.2 293.598 1163.67 288.774 1176.47 281.98 1186.87 276.454 1195.86 269.431 1207.18 264.762 1209.53 263.795 1211.99 262.951 1214.55 262.243 1217.74 261.38 1221.18 260.758 1224.56 261.035 1232.3 261.682 1236.98 266.592 1243.79 269.117 1253.67 272.783 1266.05 271.039 1275.49 268.298 1284.77 265.606 1293.07 261.799 1303.53 261.146 1312.22 260.604 1321.56 262.452 1330.35 262.366 1344.23 262.23 1355.05 257.524 1365.69 253.748 1415.29 236.136 1473.95 225.879 1538.4 208.514" stroke="url(#stroke12)" stroke-width="1.08418" stroke-linecap="butt" stroke-linejoin="miter" stroke-miterlimit="10" fill="none" fill-rule="nonzero" transform="matrix(1 0 0 1.00027 -130.943 17)"/><path d="M757.806 242.167C767.336 242.506 776.071 244.187 784.307 246.035 792.543 247.883 800.6 250.206 811.479 249.208 820.535 248.382 829.762 244.662 838.787 240.534 840.561 239.721 842.348 238.902 844.152 238.064 848.711 235.939 853.522 233.82 858.746 232.785 869.317 230.684 878.089 233.653 884.298 236.142 889.774 238.335 895.386 241.243 903.659 244.859 904.608 245.271 905.569 245.697 906.53 246.128 913.072 249.066 918.4 252.183 922.14 254.672 926.07 257.296 928.361 259.908 932.211 261.466 934.109 262.236 936.351 262.748 939.142 262.846 946.367 263.099 956.057 259.464 964.287 255.337 969.838 252.553 975.511 249.534 981.246 247.354 983.987 246.313 986.747 245.413 989.581 244.951 995.852 243.941 1001.02 244.588 1006.19 246.282 1014.25 248.918 1022.56 254.487 1031.11 259.902 1032.5 260.789 1033.84 261.676 1035.15 262.557 1042.51 267.522 1047.28 271.865 1053.6 276.971 1057.17 279.848 1060.67 282.774 1065.06 285.374 1069.2 287.826 1073.09 289.908 1076.92 291.281 1077.87 291.62 1078.82 291.947 1079.81 292.181 1093.3 295.378 1110.13 290.265 1128.51 294.072 1132.18 294.836 1135.12 296.567 1138.48 297.731 1152.63 302.616 1170.59 298.088 1183.3 291.706 1193.59 286.538 1202.55 279.947 1213.68 275.542 1216 274.624 1218.4 273.824 1220.92 273.165 1224.05 272.345 1227.42 271.76 1230.74 272.013 1238.29 272.598 1243.01 277.156 1249.7 279.534 1259.42 282.996 1271.47 281.53 1280.78 279.177 1290.1 276.824 1298.12 273.559 1308.32 273.208 1316.82 272.912 1325.9 274.871 1334.49 275.031 1347.97 275.284 1358.63 271.292 1369.12 268.218 1418.21 253.816 1475.58 246.46 1538.64 229.458" stroke="url(#stroke13)" stroke-width="1.14578" stroke-linecap="butt" stroke-linejoin="miter" stroke-miterlimit="10" fill="none" fill-rule="nonzero" transform="matrix(1 0 0 1.00027 -130.943 17)"/><path d="M757.806 241.243C767.484 242.296 776.33 244.649 784.652 247.175 792.974 249.701 801.019 252.676 812.212 252.017 821.526 251.469 831.013 247.748 840.216 243.664 842.04 242.857 843.875 242.037 845.717 241.206 850.411 239.093 855.327 236.98 860.631 235.865 871.269 233.623 880.257 236.037 886.904 238.015 892.744 239.752 898.824 242.154 907.281 245.715 908.261 246.128 909.24 246.547 910.22 246.99 916.928 250.002 922.244 253.495 925.793 256.384 929.587 259.471 931.54 262.575 935.328 264.682 937.146 265.692 939.376 266.468 942.24 266.776 949.583 267.565 959.692 264.085 968.162 260.037 973.878 257.308 979.725 254.308 985.644 252.245 988.472 251.259 991.33 250.434 994.244 250.089 1000.76 249.313 1006 250.329 1011.15 252.393 1019.21 255.62 1027.29 261.774 1036.12 267.269 1037.54 268.156 1038.93 269.037 1040.3 269.9 1047.96 274.723 1053.39 278.536 1060.1 283.501 1063.9 286.316 1067.5 289.298 1071.84 292.045 1076.19 294.793 1079.83 297.053 1083.66 298.729 1084.61 299.142 1085.57 299.542 1086.56 299.85 1100 304.027 1117.48 299.949 1136.28 303.669 1139.88 304.378 1142.8 305.992 1146.11 307.064 1160.06 311.585 1177.5 307.384 1190.12 301.421 1200.29 296.61 1209.24 290.45 1220.17 286.304 1222.46 285.435 1224.82 284.684 1227.29 284.068 1230.37 283.298 1233.66 282.75 1236.91 282.978 1244.28 283.507 1249.05 287.702 1255.61 289.939 1265.2 293.197 1276.89 292.002 1286.07 290.043 1295.26 288.084 1303.16 285.306 1313.1 285.257 1321.41 285.214 1330.25 287.277 1338.62 287.684 1351.71 288.318 1362.22 285.054 1372.55 282.676 1421.15 271.501 1477.22 267.035 1538.89 250.391" stroke="url(#stroke14)" stroke-width="1.20122" stroke-linecap="butt" stroke-linejoin="miter" stroke-miterlimit="10" fill="none" fill-rule="nonzero" transform="matrix(1 0 0 1.00027 -130.943 17)"/><path d="M757.806 240.319C767.638 242.087 776.594 245.105 784.997 248.321 793.399 251.536 801.444 255.152 812.951 254.832 822.53 254.567 832.276 250.846 841.658 246.799 843.524 245.992 845.409 245.185 847.3 244.36 852.124 242.253 857.15 240.152 862.528 238.957 873.234 236.58 882.438 238.434 889.516 239.9 895.719 241.181 902.273 243.078 910.916 246.577 911.926 246.984 912.93 247.409 913.928 247.859 920.803 250.945 926.094 254.82 929.458 258.103 933.105 261.664 934.743 265.243 938.458 267.898 940.195 269.142 942.406 270.189 945.351 270.707 952.811 272.025 963.339 268.711 972.049 264.737 977.932 262.058 983.957 259.089 990.061 257.142 992.981 256.212 995.926 255.466 998.926 255.226 1005.68 254.684 1010.99 256.076 1016.12 258.503 1024.2 262.329 1032.03 269.056 1041.16 274.637 1042.61 275.524 1044.05 276.399 1045.48 277.243 1053.44 281.93 1059.54 285.208 1066.62 290.037 1070.67 292.797 1074.36 295.828 1078.65 298.723 1082.82 301.538 1086.59 304.199 1090.43 306.177 1091.38 306.663 1092.34 307.138 1093.34 307.52 1106.73 312.669 1124.85 309.639 1144.08 313.267 1147.59 313.932 1150.5 315.417 1153.75 316.402 1167.51 320.561 1184.43 316.68 1196.96 311.135 1207.01 306.682 1215.95 300.953 1226.68 297.066 1228.94 296.253 1231.26 295.544 1233.68 294.965 1236.7 294.244 1239.92 293.733 1243.09 293.93 1250.28 294.398 1255.09 298.242 1261.54 300.324 1270.98 303.374 1282.33 302.462 1291.38 300.885 1300.44 299.308 1308.23 297.035 1317.91 297.281 1326.02 297.491 1334.6 299.653 1342.77 300.312 1355.47 301.329 1365.83 298.791 1376.01 297.109 1424.11 289.169 1478.87 287.585 1539.15 271.298" stroke="url(#stroke15)" stroke-width="1.26283" stroke-linecap="butt" stroke-linejoin="miter" stroke-miterlimit="10" fill="none" fill-rule="nonzero" transform="matrix(1 0 0 1.00027 -130.943 17)"/><path d="M757.806 239.389C767.785 241.871 776.859 245.555 785.342 249.46 793.824 253.366 801.863 257.629 813.685 257.641 823.522 257.659 833.532 253.933 843.087 249.935 845.003 249.134 846.931 248.327 848.865 247.508 853.824 245.413 858.961 243.319 864.413 242.044 875.187 239.53 884.6 240.824 892.115 241.773 898.682 242.604 905.704 243.99 914.532 247.434 915.573 247.84 916.596 248.265 917.612 248.721 924.653 251.881 929.914 256.144 933.105 259.816 936.604 263.844 937.934 267.898 941.569 271.113 943.232 272.585 945.425 273.904 948.443 274.637 956.02 276.485 966.967 273.331 975.918 269.431 981.961 266.801 988.164 263.857 994.453 262.027 997.459 261.152 1000.5 260.487 1003.58 260.358 1010.57 260.056 1015.95 261.818 1021.07 264.614 1029.15 269.037 1036.75 276.343 1046.17 282.004 1047.65 282.897 1049.13 283.76 1050.63 284.585 1058.89 289.144 1065.65 291.873 1073.11 296.573 1077.4 299.271 1081.19 302.363 1085.43 305.4 1089.67 308.437 1093.33 311.351 1097.18 313.63 1098.13 314.191 1099.09 314.739 1100.09 315.201 1113.44 321.312 1132.19 319.353 1151.85 322.871 1155.29 323.487 1158.17 324.848 1161.37 325.747 1174.93 329.542 1191.32 325.981 1203.76 320.862 1213.7 316.766 1222.62 311.468 1233.16 307.846 1235.38 307.082 1237.66 306.423 1240.03 305.887 1243 305.209 1246.14 304.741 1249.25 304.914 1256.25 305.32 1261.11 308.813 1267.43 310.747 1276.73 313.593 1287.73 312.953 1296.66 311.77 1305.59 310.587 1313.26 308.801 1322.68 309.349 1330.61 309.805 1338.93 312.072 1346.9 312.977 1359.2 314.376 1369.41 312.571 1379.43 311.585 1427.05 306.897 1480.5 308.172 1539.38 292.249" stroke="url(#stroke16)" stroke-width="1.31827" stroke-linecap="butt" stroke-linejoin="miter" stroke-miterlimit="10" fill="none" fill-rule="nonzero" transform="matrix(1 0 0 1.00027 -130.943 17)"/><path d="M757.806 238.465C767.939 241.662 777.13 246.005 785.687 250.6 793.781 254.949 802.288 260.099 814.424 260.456 824.526 260.752 834.789 257.031 844.528 253.07 846.493 252.269 848.465 251.475 850.448 250.662 855.543 248.586 860.785 246.491 866.317 245.136 877.152 242.481 886.787 243.226 894.739 243.658 901.67 244.033 909.16 244.908 918.179 248.302 919.244 248.703 920.298 249.134 921.327 249.596 928.534 252.836 933.764 257.475 936.776 261.54 940.115 266.043 941.168 270.565 944.704 274.341 946.3 276.047 948.468 277.631 951.56 278.585 959.267 280.957 970.62 277.976 979.811 274.15 986.02 271.569 992.402 268.649 998.876 266.937 1001.97 266.124 1005.1 265.452 1008.27 265.507 1015.5 265.631 1020.95 267.571 1026.05 270.737 1034.14 275.758 1041.49 283.643 1051.21 289.39 1052.72 290.29 1054.25 291.14 1055.81 291.947 1064.37 296.37 1071.79 298.557 1079.64 303.127 1084.16 305.77 1088.05 308.918 1092.25 312.103 1096.44 315.287 1100.1 318.522 1103.96 321.103 1104.91 321.737 1105.87 322.359 1106.88 322.895 1120.19 329.967 1139.57 329.086 1159.66 332.493 1163.01 333.059 1165.88 334.298 1169.02 335.105 1182.37 338.53 1198.26 335.296 1210.6 330.595 1220.43 326.85 1229.34 321.996 1239.68 318.626 1241.86 317.912 1244.1 317.302 1246.41 316.803 1249.33 316.174 1252.41 315.737 1255.44 315.885 1262.26 316.23 1267.17 319.372 1273.37 321.158 1282.52 323.801 1293.17 323.431 1301.97 322.643 1310.78 321.854 1318.33 320.561 1327.49 321.404 1335.22 322.113 1343.3 324.478 1351.06 325.636 1362.97 327.411 1373.02 326.345 1382.89 326.049 1430.02 324.626 1482.16 328.753 1539.65 313.187" stroke="url(#stroke17)" stroke-width="1.37987" stroke-linecap="butt" stroke-linejoin="miter" stroke-miterlimit="10" fill="none" fill-rule="nonzero" transform="matrix(1 0 0 1.00027 -130.943 17)"/><path d="M757.806 237.541C768.087 241.452 777.408 246.454 786.032 251.746 794.151 256.723 802.707 262.575 815.157 263.271 825.518 263.85 836.046 260.124 845.957 256.206 847.966 255.411 849.992 254.616 852.013 253.809 857.237 251.74 862.596 249.657 868.202 248.222 879.105 245.432 888.961 245.616 897.339 245.536 904.633 245.462 912.598 245.826 921.795 249.165 922.891 249.565 923.963 249.996 925.01 250.464 932.384 253.779 937.577 258.805 940.423 263.259 943.602 268.236 944.384 273.22 947.815 277.563 949.349 279.503 951.486 281.351 954.653 282.522 962.482 285.411 974.248 282.602 983.679 278.856 990.055 276.331 996.609 273.429 1003.27 271.84 1006.45 271.082 1009.67 270.577 1012.93 270.651 1020.4 270.83 1025.91 273.325 1031 276.854 1039.08 282.472 1046.21 290.943 1056.21 296.764 1057.76 297.663 1059.33 298.513 1060.95 299.296 1069.81 303.583 1077.9 305.222 1086.12 309.663 1090.89 312.244 1094.88 315.454 1099.02 318.78 1103.22 322.156 1106.83 325.667 1110.69 328.556 1111.64 329.265 1112.6 329.961 1113.62 330.571 1126.9 338.591 1146.9 338.807 1167.41 342.096 1170.69 342.62 1173.53 343.729 1176.63 344.449 1189.78 347.511 1205.15 344.597 1217.4 340.322 1227.11 336.934 1236.02 332.511 1246.15 329.4 1248.3 328.741 1250.51 328.174 1252.77 327.719 1255.63 327.139 1258.63 326.739 1261.59 326.862 1268.23 327.152 1273.18 329.93 1279.26 331.575 1288.27 334.008 1298.57 333.916 1307.25 333.521 1315.93 333.127 1323.37 332.326 1332.27 333.466 1339.8 334.427 1347.63 336.891 1355.18 338.302 1366.7 340.452 1376.6 340.131 1386.3 340.519 1432.96 342.386 1483.78 349.341 1539.88 334.131" stroke="url(#stroke18)" stroke-width="1.43531" stroke-linecap="butt" stroke-linejoin="miter" stroke-miterlimit="10" fill="none" fill-rule="nonzero" transform="matrix(1 0 0 1.00027 -130.943 17)"/><path d="M757.806 236.616C768.235 241.237 777.685 246.904 786.377 252.885 794.52 258.491 803.132 265.045 815.89 266.08 826.516 266.943 837.302 263.216 847.393 259.341 849.45 258.553 851.52 257.764 853.59 256.957 858.943 254.9 864.413 252.824 870.099 251.308 881.07 248.388 891.142 248.013 899.957 247.409 907.614 246.885 916.047 246.731 925.435 250.015 926.563 250.409 927.659 250.84 928.719 251.321 936.259 254.709 941.409 260.117 944.094 264.965 947.107 270.411 947.63 275.869 950.951 280.766 952.423 282.941 954.536 285.054 957.77 286.44 965.729 289.846 977.901 287.216 987.573 283.544 994.108 281.068 1000.85 278.197 1007.69 276.719 1010.96 276.017 1014.26 275.592 1017.61 275.776 1025.32 276.195 1030.9 279.06 1035.97 282.959 1044.06 289.181 1050.95 298.224 1061.25 304.125 1062.83 305.031 1064.44 305.869 1066.13 306.632 1075.29 310.791 1084.05 311.875 1092.65 316.193 1097.65 318.706 1101.73 321.983 1105.83 325.452 1109.92 328.92 1113.6 332.807 1117.47 336.004 1118.42 336.786 1119.39 337.556 1120.41 338.246 1133.67 347.221 1154.27 348.54 1175.22 351.7 1178.42 352.18 1181.25 353.16 1184.28 353.794 1197.24 356.493 1212.09 353.893 1224.24 350.043 1233.84 347.006 1242.73 343.026 1252.67 340.168 1254.79 339.558 1256.94 339.041 1259.16 338.622 1261.98 338.092 1264.9 337.729 1267.79 337.821 1274.24 338.049 1279.24 340.476 1285.2 341.967 1294.07 344.191 1304.02 344.486 1312.57 344.369 1320.74 344.258 1328.44 344.061 1337.08 345.497 1344.42 346.716 1352 349.267 1359.34 350.93 1370.46 353.449 1380.21 353.887 1389.76 354.952 1435.92 360.121 1485.45 369.885 1540.14 355.039" stroke="url(#stroke19)" stroke-width="1.49691" stroke-linecap="butt" stroke-linejoin="miter" stroke-miterlimit="10" fill="none" fill-rule="nonzero" transform="matrix(1 0 0 1.00027 -130.943 17)"/><path d="M757.806 235.686C768.389 241.021 777.968 247.341 786.722 254.025 794.896 260.265 803.551 267.516 816.629 268.889 827.514 270.029 838.559 266.308 848.828 262.471 850.935 261.682 853.048 260.9 855.161 260.105 860.649 258.054 866.23 255.99 871.99 254.395 883.029 251.339 893.316 250.409 902.563 249.288 910.583 248.315 919.485 247.649 929.057 250.877 930.216 251.265 931.331 251.703 932.409 252.189 940.115 255.651 945.222 261.442 947.741 266.684 950.587 272.598 950.858 278.536 954.061 283.988 955.478 286.396 957.554 288.774 960.862 290.376 968.957 294.3 981.523 291.848 991.441 288.251 998.143 285.824 1005.05 282.978 1012.08 281.616 1015.45 280.969 1018.84 280.631 1022.27 280.914 1030.22 281.579 1035.87 284.807 1040.93 289.07 1049.02 295.889 1055.68 305.511 1066.27 311.499 1067.88 312.405 1069.54 313.236 1071.29 313.982 1080.75 318.01 1090.18 318.546 1099.14 322.735 1104.39 325.187 1108.56 328.526 1112.61 332.135 1116.66 335.745 1120.35 339.959 1124.22 343.458 1125.17 344.314 1126.13 345.152 1127.16 345.922 1140.41 355.846 1161.61 358.285 1182.99 361.304 1186.11 361.741 1188.92 362.591 1191.9 363.133 1204.66 365.462 1218.98 363.189 1231.05 359.764 1240.53 357.078 1249.41 353.536 1259.15 350.942 1261.24 350.388 1263.36 349.914 1265.52 349.538 1268.28 349.051 1271.13 348.731 1273.95 348.798 1280.22 348.965 1285.27 351.035 1291.1 352.384 1299.83 354.404 1309.43 354.848 1317.85 355.248 1326.27 355.649 1333.49 355.833 1341.86 357.558 1349.01 359.03 1356.34 361.679 1363.47 363.595 1374.21 366.484 1383.79 367.679 1393.2 369.429 1438.87 377.924 1487.08 390.478 1540.39 375.989" stroke="url(#stroke20)" stroke-width="1.55235" stroke-linecap="butt" stroke-linejoin="miter" stroke-miterlimit="10" fill="none" fill-rule="nonzero" transform="matrix(1 0 0 1.00027 -130.943 17)"/><path d="M757.806 234.762C768.537 240.812 778.252 247.791 787.067 255.165 795.272 262.033 803.976 269.992 817.362 271.698 828.512 273.121 839.822 269.419 850.263 265.6 852.419 264.824 854.575 264.035 856.738 263.247 862.356 261.208 868.048 259.15 873.887 257.475 885 254.284 895.503 252.799 905.181 251.161 913.571 249.738 922.94 248.555 932.698 251.733 933.881 252.122 935.02 252.559 936.117 253.052 943.99 256.588 949.053 262.754 951.413 268.397 954.086 274.778 954.117 281.203 957.197 287.203 958.558 289.852 960.603 292.483 963.979 294.306 972.209 298.747 985.176 296.468 995.34 292.951 1002.21 290.573 1009.3 287.752 1016.51 286.513 1019.96 285.922 1023.44 285.663 1026.96 286.058 1035.15 286.969 1040.86 290.567 1045.9 295.187 1053.99 302.61 1060.42 312.811 1071.31 318.873 1072.95 319.784 1074.66 320.61 1076.46 321.331 1086.22 325.23 1096.32 325.205 1105.66 329.277 1111.15 331.667 1115.41 335.074 1119.42 338.825 1123.63 342.768 1127.11 347.123 1130.99 350.924 1131.93 351.854 1132.91 352.766 1133.94 353.61 1147.18 364.488 1168.97 368.055 1190.78 370.913 1193.82 371.314 1196.61 372.022 1199.54 372.484 1212.12 374.418 1225.91 372.484 1237.89 369.49 1247.25 367.15 1256.12 364.057 1265.67 361.716 1267.72 361.211 1269.79 360.792 1271.91 360.447 1274.62 360.016 1277.39 359.72 1280.14 359.764 1286.22 359.874 1291.32 361.581 1297.03 362.788 1305.61 364.599 1314.87 365.314 1323.17 366.115 1331.04 366.872 1338.56 367.587 1346.67 369.607 1353.63 371.338 1360.7 374.067 1367.63 376.248 1377.97 379.501 1387.4 381.459 1396.65 383.887 1441.81 395.714 1488.75 411.053 1540.65 396.921" stroke="url(#stroke21)" stroke-width="1.61395" stroke-linecap="butt" stroke-linejoin="miter" stroke-miterlimit="10" fill="none" fill-rule="nonzero" transform="matrix(1 0 0 1.00027 -130.943 17)"/><path d="M757.806 233.838C768.691 240.602 778.535 248.234 787.412 256.31 795.654 263.807 804.395 272.468 818.101 274.514 829.51 276.22 841.085 272.512 851.699 268.742 853.898 267.965 856.103 267.189 858.308 266.401 864.056 264.368 869.865 262.329 875.779 260.567 886.959 257.247 897.684 255.202 907.787 253.046 916.546 251.173 926.378 249.473 936.32 252.602 937.534 252.984 938.698 253.427 939.813 253.926 947.852 257.536 952.866 264.078 955.072 270.121 957.573 276.971 957.363 283.883 960.32 290.425 961.626 293.314 963.64 296.203 967.084 298.242 975.456 303.201 988.817 301.101 999.221 297.657 1006.25 295.335 1013.52 292.532 1020.92 291.411 1024.46 290.875 1028.03 290.702 1031.64 291.195 1040.06 292.353 1045.84 296.314 1050.87 301.304 1058.96 309.324 1065.14 320.129 1076.34 326.246 1078 327.164 1079.76 327.977 1081.63 328.68 1091.69 332.456 1102.45 331.87 1112.17 335.813 1117.91 338.135 1122.25 341.61 1126.22 345.503 1130.43 349.636 1133.88 354.263 1137.76 358.371 1138.71 359.375 1139.68 360.361 1140.71 361.285 1153.95 373.113 1176.33 377.819 1198.58 380.517 1201.53 380.874 1204.3 381.453 1207.18 381.829 1219.55 383.4 1232.83 381.78 1244.71 379.217 1253.95 377.227 1262.82 374.579 1272.16 372.49 1274.18 372.041 1276.22 371.665 1278.27 371.363 1280.93 370.981 1283.63 370.722 1286.31 370.741 1292.21 370.79 1297.35 372.145 1302.95 373.205 1311.39 374.807 1320.3 375.792 1328.46 376.993 1336.17 378.127 1343.6 379.359 1351.46 381.669 1358.21 383.652 1365.05 386.474 1371.76 388.907 1381.72 392.523 1390.98 395.252 1400.09 398.351 1444.72 413.529 1490.38 431.628 1540.89 417.86" stroke="url(#stroke22)" stroke-width="1.66939" stroke-linecap="butt" stroke-linejoin="miter" stroke-miterlimit="10" fill="none" fill-rule="nonzero" transform="matrix(1 0 0 1.00027 -130.943 17)"/><path d="M757.806 232.914C768.839 240.393 778.824 248.684 787.757 257.456 796.036 265.581 804.814 274.945 818.834 277.329 830.508 279.312 842.335 275.604 853.134 271.877 855.382 271.107 857.631 270.331 859.885 269.555 865.768 267.528 871.688 265.507 877.676 263.659 888.93 260.222 899.871 257.623 910.398 254.924 919.528 252.614 929.828 250.372 939.955 253.458 941.199 253.834 942.382 254.284 943.515 254.789 951.721 258.473 956.686 265.39 958.731 271.828 961.053 279.14 960.61 286.544 963.437 293.635 964.688 296.764 966.671 299.912 970.182 302.166 978.696 307.643 992.451 305.715 1003.1 302.351 1010.29 300.078 1017.74 297.306 1025.32 296.296 1028.94 295.815 1032.61 295.729 1036.3 296.327 1044.95 297.731 1050.8 302.055 1055.82 307.409 1063.9 316.033 1069.87 327.411 1081.35 333.614 1083.05 334.532 1084.85 335.339 1086.78 336.022 1097.14 339.669 1108.57 338.53 1118.67 342.349 1124.65 344.61 1129.07 348.152 1133 352.18 1137.21 356.505 1140.62 361.408 1144.5 365.825 1145.46 366.903 1146.43 367.963 1147.47 368.961 1160.7 381.743 1183.67 387.601 1206.36 390.121 1209.23 390.441 1211.99 390.884 1214.81 391.168 1226.98 392.375 1239.74 391.063 1251.53 388.932 1260.66 387.287 1269.52 385.106 1278.66 383.258 1280.64 382.864 1282.64 382.531 1284.64 382.273 1287.25 381.94 1289.87 381.718 1292.49 381.706 1298.2 381.694 1303.39 382.679 1308.86 383.603 1317.16 384.977 1325.72 386.246 1333.76 387.848 1341.31 389.357 1348.65 391.106 1356.25 393.706 1362.81 395.948 1369.4 398.849 1375.9 401.548 1385.47 405.521 1394.57 409.026 1403.52 412.796 1447.61 431.338 1492.03 452.19 1541.14 438.779" stroke="url(#stroke23)" stroke-width="1.73099" stroke-linecap="butt" stroke-linejoin="miter" stroke-miterlimit="10" fill="none" fill-rule="nonzero" transform="matrix(1 0 0 1.00027 -130.943 17)"/><path d="M757.806 231.984C768.987 240.177 779.132 249.109 788.102 258.59 796.436 267.331 805.239 277.409 819.567 280.132 831.5 282.399 843.592 278.69 854.569 275 856.867 274.23 859.159 273.46 861.456 272.69 867.469 270.676 873.499 268.661 879.567 266.733 890.889 263.154 902.051 259.994 913.01 256.791 922.509 254.025 933.271 251.278 943.583 254.308 944.858 254.678 946.066 255.128 947.211 255.645 955.577 259.403 960.499 266.696 962.39 273.534 964.54 281.308 963.856 289.212 966.56 296.844 967.755 300.214 969.714 303.62 973.287 306.097 981.942 312.09 996.092 310.341 1006.98 307.051 1014.34 304.828 1021.96 302.08 1029.73 301.193 1033.45 300.768 1037.2 300.768 1040.97 301.464 1049.86 303.127 1055.77 307.809 1060.79 313.519 1068.85 322.754 1074.6 334.698 1086.38 340.981 1088.11 341.905 1089.95 342.706 1091.95 343.365 1102.61 346.895 1114.71 345.17 1125.18 348.885 1131.4 351.072 1135.91 354.688 1139.8 358.858 1144.02 363.373 1147.38 368.56 1151.27 373.273 1152.22 374.425 1153.2 375.552 1154.24 376.636 1167.47 390.367 1191.02 397.402 1214.14 399.724 1216.94 400.008 1219.67 400.316 1222.44 400.513 1234.41 401.357 1246.65 400.334 1258.35 398.659 1267.36 397.34 1276.21 395.622 1285.15 394.032 1287.1 393.687 1289.06 393.404 1291.01 393.182 1293.56 392.893 1296.11 392.714 1298.65 392.677 1304.18 392.609 1309.42 393.238 1314.77 394.014 1322.92 395.184 1331.15 396.7 1339.04 398.72 1346.45 400.587 1353.69 402.884 1361.04 405.761 1367.4 408.275 1373.75 411.244 1380.04 414.207 1389.23 418.537 1398.14 422.825 1406.97 427.26 1450.5 449.165 1493.67 472.771 1541.39 459.718" stroke="url(#stroke24)" stroke-width="1.78644" stroke-linecap="butt" stroke-linejoin="miter" stroke-miterlimit="10" fill="none" fill-rule="nonzero" transform="matrix(1 0 0 1.00027 -130.943 17)"/><path d="M757.806 231.06C769.141 239.968 779.41 249.577 788.447 259.735 796.806 269.123 805.658 279.891 820.307 282.947 832.504 285.497 844.849 281.783 856.005 278.142 875.877 271.655 895.75 265.169 915.622 258.676 925.491 255.454 936.721 252.202 947.218 255.177 958.065 258.251 964.078 267.029 966.049 275.259 968.02 283.489 967.109 291.897 969.683 300.066 970.823 303.682 972.751 307.335 976.392 310.033 985.195 316.544 999.733 314.967 1010.86 311.752 1021.98 308.536 1033.72 304.119 1045.64 306.595 1071.64 312.004 1072.1 342.959 1097.11 350.708 1108.07 354.102 1120.83 351.842 1131.69 355.421 1146.92 360.441 1151.81 374.11 1161 384.312 1174.25 398.997 1198.37 407.215 1221.92 409.328 1245.47 411.441 1268.85 408.268 1291.65 404.8 1383.22 390.872 1454.74 504.459 1541.63 480.65" stroke="url(#stroke25)" stroke-width="1.84804" stroke-linecap="butt" stroke-linejoin="miter" stroke-miterlimit="10" fill="none" fill-rule="nonzero" transform="matrix(1 0 0 1.00027 -130.943 17)"/><path d="M784.079 234.368C759.001 253.046 738.722 257.764 711.907 275.142 708.525 277.335 704.724 279.509 700.197 279.873 690.217 280.668 683.472 272.659 681.1 265.631 678.729 258.602 677.176 250.372 668.663 246.54 656.059 240.867 640.671 249.479 630.698 257.413 620.577 265.464 610.45 273.516 600.329 281.567 594.458 286.236 588.353 291.029 580.376 293.598 572.399 296.166 561.976 295.92 556.025 291.306 544.709 282.534 553.82 263.29 537.994 259.625 534.003 258.701 529.586 259.354 525.816 260.678 510.613 266 499.081 281.893 483.453 277.249 479.097 275.955 475.95 273.201 472.106 271.243 456.157 263.111 433.593 270.559 420.003 280.674 406.42 290.789 395.942 303.848 378.305 309.91 374.696 311.154 370.667 312.072 366.724 311.591 357.521 310.464 353.203 302.733 345.429 299.012 334.396 293.727 319.279 297.694 308.776 303.515 298.279 309.337 289.242 317.049 276.7 320.129 266.45 322.649 255.134 321.706 244.674 323.721 227.678 326.992 215.506 337.371 203.734 346.79 149.759 389.979 81.1103 423.582 5.48867 443.825" stroke="url(#stroke26)" stroke-width="0.616012" stroke-linecap="butt" stroke-linejoin="miter" stroke-miterlimit="10" fill="none" fill-rule="nonzero" transform="matrix(1 0 0 1.00027 -130.943 17)"/><path d="M784.079 235.298C771.309 243.984 759.79 249.146 748.073 254.204 736.923 259.033 725.527 263.727 712.369 271.661 708.944 273.707 705.125 275.776 700.615 276.134 690.735 276.922 683.934 269.413 681.328 262.828 678.71 256.249 676.874 248.53 668.41 244.994 655.819 239.783 640.579 248.179 630.482 255.928 622.062 262.403 613.579 268.877 605.134 275.062 603.329 276.38 601.542 277.686 599.756 278.974 593.848 283.236 587.836 287.505 580.154 289.606 572.473 291.706 562.598 291.004 556.789 286.242 553.462 283.514 551.873 279.891 550.814 276.066 548.423 267.399 548.978 257.777 538.05 255.423 535.333 254.85 532.426 254.98 529.666 255.528 528.36 255.787 527.085 256.144 525.871 256.569 516.015 259.994 507.607 267.657 498.65 271.23 493.771 273.171 488.8 273.922 483.373 272.21 479.067 270.842 475.937 268.064 472.155 266.025 460.95 259.994 446.597 261.405 434.061 266.333 429.053 268.304 424.389 270.848 420.428 273.602 415.291 277.181 410.578 281.179 405.761 284.955 397.642 291.318 389.517 297.115 378.687 300.288 376.032 301.064 373.143 301.655 370.23 301.661 369.25 301.661 368.271 301.593 367.291 301.446 358.254 300.09 353.788 292.532 345.996 288.811 334.944 283.538 319.92 287.173 309.3 292.667 298.723 298.162 289.544 305.524 277.027 308.505 266.727 310.951 255.417 310.131 244.927 312.127 227.974 315.361 215.635 325.174 203.709 333.953 148.946 374.191 80.6545 402.687 5.22994 422.899" stroke="url(#stroke27)" stroke-width="0.677614" stroke-linecap="butt" stroke-linejoin="miter" stroke-miterlimit="10" fill="none" fill-rule="nonzero" transform="matrix(1 0 0 1.00027 -130.943 17)"/><path d="M784.079 236.222C771.383 244.027 759.925 248.45 748.344 252.75 737.336 256.871 726.088 260.838 712.831 268.175 709.375 270.084 705.525 272.031 701.028 272.388 691.246 273.171 684.396 266.154 681.556 260.025 678.698 253.902 676.585 246.658 668.158 243.454 655.591 238.668 640.48 246.885 630.273 254.444 621.784 260.758 613.16 267.072 604.61 272.795 602.78 274.008 600.975 275.21 599.183 276.374 593.232 280.236 587.318 283.982 579.932 285.608 572.547 287.234 563.22 286.088 557.553 281.173 554.343 278.388 552.717 274.778 551.541 271.008 548.904 262.538 548.966 253.329 538.111 251.216 535.382 250.686 532.481 250.853 529.727 251.413 528.422 251.678 527.146 252.035 525.933 252.454 516.07 255.861 507.563 263.296 498.526 266.586 493.605 268.372 488.646 268.957 483.305 267.171 479.048 265.735 475.937 262.926 472.21 260.813 461.178 254.555 447.219 255.245 434.597 259.735 429.589 261.516 424.888 263.924 420.86 266.53 415.648 269.906 410.862 273.725 405.983 277.187 397.698 283.07 389.683 288.115 379.076 290.659 376.464 291.288 373.636 291.719 370.766 291.614 369.805 291.577 368.837 291.472 367.87 291.3 359.006 289.711 354.392 282.325 346.575 278.61 335.505 273.355 320.573 276.657 309.836 281.813 299.179 286.975 289.858 293.986 277.366 296.875 267.017 299.246 255.713 298.55 245.198 300.534 228.282 303.731 215.789 312.977 203.703 321.115 148.151 358.402 80.2171 381.792 4.9897 401.973" stroke="url(#stroke28)" stroke-width="0.733055" stroke-linecap="butt" stroke-linejoin="miter" stroke-miterlimit="10" fill="none" fill-rule="nonzero" transform="matrix(1 0 0 1.00027 -130.943 17)"/><path d="M784.079 237.146C771.451 244.07 760.048 247.736 748.609 251.296 737.17 254.857 726.63 257.924 713.287 264.688 709.794 266.462 705.919 268.286 701.441 268.649 691.757 269.425 684.87 262.902 681.784 257.222 678.698 251.542 676.289 244.803 667.905 241.908 655.351 237.571 640.382 245.579 630.064 252.959 621.501 259.107 612.754 265.28 604.093 270.528 602.238 271.649 600.421 272.739 598.622 273.781 592.628 277.236 586.807 280.458 579.729 281.61 572.651 282.762 563.855 281.173 558.341 276.103 555.255 273.269 553.586 269.666 552.292 265.945 549.421 257.666 548.972 248.9 538.198 247.002 535.463 246.522 532.561 246.719 529.814 247.292 528.514 247.563 527.239 247.92 526.019 248.339 516.151 251.721 507.545 258.941 498.422 261.935 493.451 263.561 488.51 263.998 483.249 262.119 479.042 260.616 475.95 257.77 472.284 255.584 461.418 249.097 447.866 249.072 435.145 253.113 430.137 254.709 425.406 256.976 421.309 259.434 416.024 262.606 411.17 266.241 406.223 269.401 397.765 274.803 389.862 279.097 379.482 281.013 376.919 281.487 374.141 281.764 371.314 281.542 370.365 281.468 369.416 281.333 368.462 281.13 359.77 279.312 355.008 272.093 347.172 268.39 336.084 263.154 321.232 266.093 310.39 270.947 299.548 275.801 290.185 282.442 277.723 285.226 267.325 287.524 256.027 286.951 245.481 288.916 228.608 292.07 215.955 300.75 203.709 308.253 147.375 342.589 79.7982 360.879 4.75562 381.028" stroke="url(#stroke29)" stroke-width="0.794656" stroke-linecap="butt" stroke-linejoin="miter" stroke-miterlimit="10" fill="none" fill-rule="nonzero" transform="matrix(1 0 0 1.00027 -130.943 17)"/><path d="M784.079 238.07C771.525 244.113 760.184 247.033 748.88 249.842 738.143 252.51 727.172 255.004 713.749 261.195 710.213 262.828 706.32 264.54 701.854 264.898 692.262 265.668 685.332 259.637 682.006 254.407 678.679 249.177 675.987 242.943 667.646 240.35 655.111 236.456 640.277 244.267 629.842 251.462 621.205 257.45 612.322 263.468 603.557 268.249 601.678 269.271 599.848 270.257 598.037 271.169 591.994 274.224 586.271 276.916 579.495 277.6 572.676 278.284 564.464 276.245 559.093 271.021 556.124 268.132 554.423 264.547 553.007 260.875 549.896 252.793 548.941 244.471 538.241 242.783 535.5 242.352 532.598 242.579 529.857 243.165 528.557 243.442 527.282 243.799 526.062 244.218 516.188 247.582 507.477 254.573 498.28 257.284 493.26 258.75 488.344 259.027 483.163 257.074 479.005 255.503 475.931 252.627 472.321 250.36 461.627 243.645 448.475 242.906 435.662 246.503 430.654 247.914 425.886 250.039 421.722 252.349 416.369 255.319 411.435 258.768 406.42 261.62 397.784 266.542 389.997 270.078 379.839 271.372 377.32 271.692 374.597 271.815 371.819 271.483 370.889 271.372 369.952 271.199 369.01 270.971 360.49 268.926 355.581 261.873 347.72 258.177 336.614 252.953 321.854 255.559 310.895 260.08 299.936 264.602 290.468 270.891 278.031 273.583 267.583 275.807 256.292 275.351 245.721 277.304 228.892 280.421 216.072 288.534 203.672 295.39 146.549 326.776 79.3301 339.959 4.48457 360.078" stroke="url(#stroke30)" stroke-width="0.850097" stroke-linecap="butt" stroke-linejoin="miter" stroke-miterlimit="10" fill="none" fill-rule="nonzero" transform="matrix(1 0 0 1.00027 -130.943 17)"/><path d="M784.079 239C771.599 244.169 760.319 246.337 749.145 248.388 738.55 250.341 727.708 252.085 714.211 257.709 710.638 259.199 706.72 260.795 702.273 261.158 692.78 261.922 685.8 256.384 682.24 251.61 678.667 246.824 675.692 241.095 667.4 238.816 654.877 235.372 640.185 242.98 629.639 249.984 620.928 255.805 611.91 261.67 603.039 265.988 601.136 266.912 599.288 267.787 597.477 268.575 591.384 271.224 585.748 273.392 579.292 273.602 572.836 273.811 565.099 271.335 559.875 265.951 557.023 263.013 555.286 259.434 553.752 255.818 550.407 247.933 548.941 240.054 538.321 238.575 535.567 238.193 532.678 238.452 529.937 239.044 528.637 239.327 527.362 239.69 526.136 240.103 516.255 243.442 507.446 250.218 498.169 252.633 493.099 253.945 488.202 254.056 483.108 252.023 478.993 250.384 475.943 247.471 472.395 245.136 461.874 238.193 449.122 236.74 436.211 239.894 431.202 241.12 426.404 243.103 422.172 245.265 416.751 248.037 411.73 251.29 406.661 253.846 397.845 258.288 390.17 261.072 380.246 261.744 377.77 261.91 375.102 261.873 372.367 261.436 371.449 261.288 370.525 261.078 369.595 260.826 361.248 258.559 356.191 251.666 348.312 247.976 337.187 242.77 322.519 245.031 311.444 249.232 300.368 253.434 290.795 259.36 278.382 261.953 267.891 264.103 256.6 263.77 245.998 265.705 229.206 268.785 216.233 276.331 203.672 282.546 145.761 310.982 78.8989 319.057 4.24432 339.146" stroke="url(#stroke31)" stroke-width="0.911698" stroke-linecap="butt" stroke-linejoin="miter" stroke-miterlimit="10" fill="none" fill-rule="nonzero" transform="matrix(1 0 0 1.00027 -130.943 17)"/><path d="M784.079 239.924C771.666 244.212 760.455 245.635 749.416 246.935 738.962 248.167 728.25 249.165 714.673 254.222 711.063 255.571 707.121 257.056 702.685 257.413 693.291 258.171 686.262 253.126 682.468 248.801 678.673 244.477 675.39 239.235 667.154 237.263 654.636 234.269 640.092 241.668 629.435 248.493 620.657 254.154 611.497 259.859 602.522 263.715 600.594 264.547 598.727 265.31 596.91 265.976 590.768 268.224 585.212 269.863 579.076 269.604 572.941 269.345 565.727 266.425 560.645 260.881 557.91 257.894 556.142 254.321 554.485 250.76 550.912 243.066 548.929 235.637 538.389 234.362 535.629 234.029 532.74 234.319 530.011 234.922 528.717 235.212 527.442 235.575 526.21 235.988 516.323 239.308 507.416 245.857 498.058 247.988 492.939 249.14 488.067 249.097 483.046 246.984 478.98 245.271 475.95 242.333 472.457 239.918 462.108 232.748 449.763 230.586 436.753 233.29 431.745 234.331 426.915 236.173 422.609 238.187 417.12 240.756 412.014 243.824 406.882 246.072 397.876 250.027 390.318 252.054 380.634 252.109 378.201 252.122 375.589 251.931 372.903 251.376 372.004 251.191 371.092 250.951 370.174 250.668 362 248.179 356.794 241.446 348.891 237.768 337.747 232.582 323.172 234.504 311.979 238.378 300.786 242.253 291.115 247.853 278.721 250.323 268.181 252.423 256.896 252.189 246.269 254.105 229.52 257.142 216.387 264.128 203.666 269.703 144.966 295.187 78.4615 298.156 4.00408 318.22" stroke="url(#stroke32)" stroke-width="0.967139" stroke-linecap="butt" stroke-linejoin="miter" stroke-miterlimit="10" fill="none" fill-rule="nonzero" transform="matrix(1 0 0 1.00027 -130.943 17)"/><path d="M784.079 240.849C771.74 244.255 760.59 244.933 749.687 245.481 739.375 245.998 728.786 246.239 715.135 250.736 711.482 251.937 707.521 253.31 703.104 253.668 693.809 254.425 686.731 249.861 682.696 245.992 678.661 242.124 675.094 237.38 666.901 235.711 654.396 233.167 639.994 240.362 629.22 246.996 620.368 252.497 611.072 258.041 601.998 261.436 600.045 262.169 598.167 262.822 596.343 263.364 590.152 265.206 584.67 266.308 578.861 265.588 572.842 264.842 566.349 261.497 561.415 255.793 558.791 252.756 556.998 249.195 555.218 245.678 551.417 238.181 548.916 231.202 538.45 230.13 535.678 229.847 532.795 230.167 530.072 230.783 528.779 231.079 527.504 231.442 526.272 231.849 516.378 235.144 507.372 241.477 497.929 243.319 492.767 244.317 487.906 244.107 482.972 241.914 478.956 240.134 475.943 237.165 472.512 234.67 462.336 227.272 450.397 224.401 437.283 226.656 432.28 227.512 427.408 229.218 423.034 231.085 417.484 233.456 412.285 236.327 407.098 238.28 397.901 241.742 390.459 243.017 381.016 242.456 378.626 242.315 376.069 241.97 373.427 241.304 372.54 241.083 371.646 240.805 370.741 240.497 362.739 237.787 357.386 231.214 349.458 227.543 338.295 222.368 323.813 223.957 312.503 227.5 301.439 230.968 291.411 236.296 279.047 238.662 268.458 240.688 257.179 240.577 246.522 242.481 229.81 245.481 216.528 251.924 203.641 256.834 144.202 279.485 78.0118 277.236 3.73919 297.263" stroke="url(#stroke33)" stroke-width="1.02874" stroke-linecap="butt" stroke-linejoin="miter" stroke-miterlimit="10" fill="none" fill-rule="nonzero" transform="matrix(1 0 0 1.00027 -130.943 17)"/><path d="M784.079 241.773C771.814 244.298 760.732 244.237 749.952 244.027 739.782 243.83 729.315 243.313 715.591 247.249 711.895 248.308 707.915 249.565 703.511 249.929 694.314 250.68 687.186 246.608 682.917 243.196 678.648 239.783 674.786 235.538 666.642 234.177 654.15 232.089 639.877 239.05 629.004 245.524 620.066 250.84 610.647 256.249 601.468 259.187 599.485 259.822 597.594 260.37 595.764 260.789 589.518 262.218 584.115 262.785 578.639 261.614 572.873 260.382 566.959 256.618 562.179 250.748 559.672 247.668 557.855 244.107 555.951 240.645 551.929 233.339 548.898 226.816 538.518 225.947 535.74 225.713 532.857 226.064 530.14 226.693 528.847 226.988 527.571 227.358 526.333 227.764 516.434 231.042 507.323 237.146 497.806 238.699 492.594 239.536 487.759 239.167 482.898 236.9 478.931 235.046 475.937 232.046 472.562 229.483 462.558 221.851 451.026 218.284 437.806 220.083 432.804 220.76 427.901 222.319 423.459 224.038 417.841 226.206 412.55 228.886 407.314 230.536 397.919 233.506 390.601 234.023 381.398 232.853 379.051 232.557 376.556 232.058 373.956 231.282 373.088 231.023 372.207 230.715 371.314 230.376 363.484 227.45 357.983 221.031 350.037 217.366 338.856 212.21 324.466 213.461 313.033 216.676 301.6 219.892 291.719 224.795 279.38 227.062 268.748 229.021 257.469 229.021 246.787 230.912 230.118 233.875 216.67 239.752 203.629 244.021 143.402 263.733 77.5683 256.366 3.49279 276.368" stroke="url(#stroke34)" stroke-width="1.08418" stroke-linecap="butt" stroke-linejoin="miter" stroke-miterlimit="10" fill="none" fill-rule="nonzero" transform="matrix(1 0 0 1.00027 -130.943 17)"/><path d="M784.079 242.703C771.882 244.347 760.868 243.547 750.223 242.579 740.194 241.668 729.845 240.387 716.053 243.768 712.32 244.686 708.316 245.832 703.93 246.189 694.831 246.935 687.648 243.356 683.151 240.393 678.655 237.43 674.49 233.69 666.396 232.631 653.909 230.998 639.79 237.75 628.801 244.033 619.795 249.189 610.234 254.438 600.951 256.914 598.943 257.45 597.033 257.887 595.203 258.183 588.895 259.199 583.567 259.218 578.429 257.61 572.91 255.879 567.588 251.715 562.955 245.672 560.559 242.549 558.723 238.988 556.69 235.582 552.452 228.473 548.892 222.399 538.592 221.734 535.801 221.555 532.925 221.931 530.214 222.565 528.927 222.867 527.645 223.237 526.407 223.643 516.502 226.896 507.292 232.785 497.695 234.048 492.434 234.725 487.617 234.196 482.843 231.849 478.925 229.927 475.943 226.896 472.629 224.253 462.792 216.393 451.673 212.13 438.354 213.461 433.359 213.96 428.418 215.376 423.903 216.941 418.217 218.912 412.833 221.389 407.541 222.75 397.95 225.22 390.755 224.98 381.792 223.212 379.488 222.756 377.049 222.103 374.492 221.216 373.636 220.921 372.774 220.576 371.893 220.212 364.236 217.07 358.587 210.806 350.616 207.146 339.417 202.009 325.125 202.921 313.569 205.81 302.351 208.613 292.033 213.245 279.719 215.42 269.037 217.305 257.77 217.428 247.052 219.3 230.419 222.22 216.818 227.536 203.617 231.165 142.595 247.933 77.1247 235.452 3.24023 255.423" stroke="url(#stroke35)" stroke-width="1.14578" stroke-linecap="butt" stroke-linejoin="miter" stroke-miterlimit="10" fill="none" fill-rule="nonzero" transform="matrix(1 0 0 1.00027 -130.943 17)"/><path d="M784.079 243.627C771.956 244.397 761.009 242.851 750.488 241.12 740.607 239.493 730.375 237.448 716.515 240.276 712.739 241.046 708.716 242.081 704.342 242.438 695.336 243.177 688.11 240.097 683.379 237.577 678.581 235.027 674.188 231.836 666.143 231.079 653.663 229.902 639.692 236.438 628.585 242.543 619.505 247.532 609.803 252.627 600.427 254.641 598.394 255.078 596.466 255.405 594.631 255.577 588.267 256.181 583.013 255.645 578.214 253.6 572.941 251.358 568.204 246.799 563.725 240.584 561.44 237.417 559.579 233.857 557.423 230.499 552.964 223.582 548.873 217.97 538.66 217.502 535.863 217.372 532.992 217.779 530.282 218.426 528.994 218.734 527.719 219.103 526.475 219.51 516.563 222.744 507.255 228.405 497.572 229.385 492.262 229.908 487.469 229.212 482.769 226.791 478.9 224.795 475.937 221.74 472.685 219.017 463.02 210.929 452.313 205.97 438.884 206.838 433.888 207.159 428.917 208.428 424.334 209.845 418.587 211.619 413.098 213.886 407.763 214.958 397.975 216.923 390.897 215.925 382.18 213.559 379.913 212.943 377.535 212.142 375.028 211.144 374.191 210.812 373.34 210.436 372.472 210.042 364.987 206.691 359.191 200.574 351.195 196.927 339.977 191.802 325.778 192.381 314.105 194.937 302.431 197.494 292.341 201.695 280.064 203.765 269.333 205.576 258.072 205.822 247.329 207.676 230.74 210.559 216.972 215.309 203.611 218.296 141.794 232.12 76.6874 214.526 2.99998 234.467" stroke="url(#stroke36)" stroke-width="1.20122" stroke-linecap="butt" stroke-linejoin="miter" stroke-miterlimit="10" fill="none" fill-rule="nonzero" transform="matrix(1 0 0 1.00027 -130.943 17)"/><path d="M784.079 244.551C772.03 244.44 761.145 242.154 750.759 239.666 741.02 237.331 730.905 234.51 716.977 236.789 713.157 237.411 709.116 238.335 704.761 238.699 695.854 239.432 688.572 236.844 683.607 234.781 678.642 232.717 673.88 229.994 665.891 229.539 653.417 228.824 639.593 235.144 628.376 241.064 619.222 245.894 609.384 250.822 599.904 252.38 597.846 252.719 595.9 252.935 594.064 252.99 587.645 253.175 582.458 252.072 577.998 249.614 572.978 246.848 568.813 241.914 564.495 235.526 562.321 232.317 560.448 228.756 558.156 225.454 553.487 218.721 548.855 213.578 538.721 213.307 535.912 213.233 533.048 213.664 530.35 214.323 529.062 214.637 527.787 215.007 526.537 215.407 516.619 218.623 507.206 224.062 497.448 224.746 492.089 225.109 487.315 224.253 482.701 221.758 478.882 219.688 475.937 216.602 472.74 213.812 463.247 205.496 452.954 199.847 439.42 200.247 434.43 200.395 429.422 201.516 424.765 202.779 418.95 204.356 413.369 206.42 407.979 207.202 397.987 208.656 391.038 206.9 382.562 203.943 380.338 203.167 378.016 202.218 375.558 201.11 374.733 200.74 373.901 200.327 373.039 199.908 365.72 196.342 359.782 190.379 351.768 186.738 340.532 181.631 326.425 181.878 314.634 184.101 302.844 186.325 292.649 190.175 280.396 192.153 269.616 193.89 258.362 194.259 247.588 196.095 231.035 198.941 217.114 203.124 203.592 205.471 140.981 216.344 76.2438 193.65 2.74125 213.559" stroke="url(#stroke37)" stroke-width="1.26283" stroke-linecap="butt" stroke-linejoin="miter" stroke-miterlimit="10" fill="none" fill-rule="nonzero" transform="matrix(1 0 0 1.00027 -130.943 17)"/><path d="M784.079 245.475C772.098 244.483 761.286 241.465 751.024 238.212 741.426 235.169 731.428 231.565 717.433 233.302 713.57 233.783 709.511 234.596 705.168 234.953 696.359 235.68 689.022 233.586 683.829 231.972 678.636 230.358 673.573 228.152 665.632 227.986 653.164 227.734 639.489 233.838 628.16 239.567 618.938 244.23 608.959 248.998 599.374 250.101 597.286 250.341 595.327 250.446 593.485 250.378 587.004 250.144 581.904 248.462 577.77 245.598 573.002 242.29 569.417 236.998 565.259 230.438 563.195 227.185 561.304 223.625 558.883 220.378 553.998 213.836 548.836 209.155 538.783 209.081 535.968 209.062 533.103 209.518 530.411 210.19 529.124 210.51 527.849 210.88 526.598 211.28 516.674 214.471 507.163 219.688 497.325 220.089 491.917 220.292 487.167 219.276 482.627 216.701 478.857 214.563 475.931 211.446 472.796 208.576 463.475 200.032 453.588 193.699 439.95 193.625 434.966 193.6 429.921 194.574 425.196 195.682 419.32 197.069 413.64 198.91 408.201 199.409 398.006 200.346 391.18 197.839 382.95 194.29 380.77 193.354 378.503 192.257 376.088 191.032 375.281 190.625 374.462 190.181 373.611 189.732 366.466 185.962 360.38 180.14 352.341 176.506 341.086 171.418 327.078 171.332 315.164 173.223 303.719 175.04 292.957 178.613 280.729 180.492 269.9 182.155 258.651 182.648 247.853 184.471 231.343 187.274 217.255 190.896 203.58 192.602 140.174 200.518 75.8003 172.724 2.49485 192.602" stroke="url(#stroke38)" stroke-width="1.31827" stroke-linecap="butt" stroke-linejoin="miter" stroke-miterlimit="10" fill="none" fill-rule="nonzero" transform="matrix(1 0 0 1.00027 -130.943 17)"/><path d="M784.079 246.405C772.171 244.532 761.422 240.781 751.295 236.764 741.839 233.013 731.958 228.633 717.895 229.822 713.989 230.155 709.911 230.857 705.587 231.214 696.876 231.935 689.484 230.339 684.063 229.169 678.642 227.998 673.277 226.311 665.386 226.446 652.924 226.662 639.396 232.545 627.951 238.089 618.655 242.592 608.534 247.2 598.856 247.84 596.743 247.982 594.766 247.97 592.924 247.785 586.388 247.132 581.374 244.865 577.567 241.606 573.064 237.756 570.033 232.113 566.041 225.374 564.089 222.079 562.179 218.518 559.629 215.327 554.54 208.97 548.83 204.762 538.863 204.88 536.035 204.917 533.177 205.397 530.491 206.075 529.21 206.401 527.935 206.771 526.678 207.171 516.748 210.344 507.138 215.333 497.214 215.444 491.763 215.493 487.026 214.311 482.572 211.662 478.851 209.45 475.943 206.303 472.863 203.358 463.716 194.586 454.241 187.57 440.498 187.021 435.515 186.824 430.439 187.65 425.64 188.611 419.695 189.8 413.917 191.426 408.435 191.648 398.036 192.06 391.346 188.795 383.351 184.674 381.213 183.572 379.002 182.327 376.636 180.997 375.841 180.553 375.034 180.079 374.203 179.605 367.223 175.625 360.989 169.952 352.932 166.329 341.659 161.26 327.743 160.841 315.712 162.393 304.193 163.884 293.283 167.106 281.08 168.886 270.202 170.475 258.959 171.085 248.13 172.896 231.658 175.662 217.409 178.711 203.58 179.783 139.379 184.742 75.3691 151.847 2.26077 171.695" stroke="url(#stroke39)" stroke-width="1.37987" stroke-linecap="butt" stroke-linejoin="miter" stroke-miterlimit="10" fill="none" fill-rule="nonzero" transform="matrix(1 0 0 1.00027 -130.943 17)"/><path d="M784.079 247.329C772.245 244.582 761.558 240.091 751.56 235.311 742.246 230.857 732.488 225.682 718.357 226.329 714.414 226.508 710.311 227.111 705.999 227.469 697.388 228.183 689.94 227.087 684.285 226.366 678.63 225.645 672.969 224.469 665.133 224.9 652.677 225.584 639.31 231.263 627.741 236.598 618.384 240.959 608.115 245.382 598.333 245.567 596.195 245.61 594.199 245.487 592.351 245.185 585.76 244.101 580.844 241.255 577.345 237.602 573.126 233.198 570.637 227.21 566.805 220.298 564.957 216.966 563.041 213.393 560.356 210.257 555.058 204.079 548.812 200.352 538.918 200.66 536.085 200.746 533.226 201.257 530.547 201.947 529.266 202.28 527.99 202.65 526.734 203.05 516.797 206.198 507.089 210.972 497.085 210.793 491.584 210.682 486.871 209.339 482.498 206.611 478.826 204.325 475.937 201.153 472.919 198.134 463.944 189.128 454.876 181.44 441.028 180.405 436.05 180.036 430.938 180.713 426.071 181.52 420.065 182.512 414.188 183.923 408.65 183.861 398.055 183.744 391.494 179.728 383.733 175.028 381.638 173.759 379.488 172.373 377.16 170.931 376.384 170.451 375.589 169.939 374.77 169.44 367.956 165.258 361.581 159.726 353.505 156.11 342.219 151.052 328.396 150.307 316.242 151.527 304.088 152.746 293.585 155.555 281.413 157.237 270.485 158.753 259.249 159.486 248.395 161.278 231.966 164.007 217.557 166.459 203.567 166.921 138.572 168.794 74.9317 130.927 2.0082 150.751" stroke="url(#stroke40)" stroke-width="1.43531" stroke-linecap="butt" stroke-linejoin="miter" stroke-miterlimit="10" fill="none" fill-rule="nonzero" transform="matrix(1 0 0 1.00027 -130.943 17)"/><path d="M784.079 248.253C772.313 244.625 761.693 239.401 751.831 233.851 742.658 228.688 733.018 222.725 718.819 222.836 714.833 222.867 710.712 223.36 706.418 223.717 697.899 224.426 690.408 223.828 684.519 223.551 678.63 223.274 672.673 222.621 664.887 223.348 652.437 224.506 639.218 229.957 627.532 235.107 618.101 239.302 607.696 243.559 597.809 243.294 595.641 243.239 593.633 242.998 591.785 242.579 585.138 241.07 580.333 237.639 577.136 233.598 573.206 228.633 571.241 222.313 567.581 215.222 565.838 211.847 563.916 208.268 561.095 205.194 555.594 199.2 548.799 195.954 538.992 196.446 536.146 196.588 533.294 197.124 530.621 197.826 529.339 198.159 528.064 198.535 526.801 198.935 516.859 202.064 507.046 206.611 496.968 206.149 491.418 205.884 486.73 204.368 482.43 201.572 478.808 199.212 475.937 196.015 472.974 192.917 464.165 183.683 455.51 175.323 441.564 173.802 436.593 173.26 431.443 173.789 426.502 174.442 420.428 175.243 414.459 176.426 408.872 176.093 398.079 175.446 391.654 170.672 384.121 165.399 382.075 163.964 379.975 162.436 377.696 160.878 376.932 160.354 376.156 159.818 375.349 159.288 368.702 154.902 362.184 149.512 354.084 145.903 342.78 140.864 329.049 139.786 316.772 140.673 304.495 141.56 293.893 144.018 281.746 145.607 270.768 147.048 259.538 147.905 248.653 149.679 232.261 152.371 217.693 154.256 203.549 154.071 137.765 152.993 74.4821 110.026 1.75564 129.812" stroke="url(#stroke41)" stroke-width="1.49691" stroke-linecap="butt" stroke-linejoin="miter" stroke-miterlimit="10" fill="none" fill-rule="nonzero" transform="matrix(1 0 0 1.00027 -130.943 17)"/><path d="M784.079 249.183C772.387 244.674 761.829 238.723 752.096 232.403 743.065 226.539 733.548 219.781 719.274 219.356 715.246 219.239 711.106 219.621 706.825 219.984 698.404 220.686 690.858 220.594 684.741 220.754 678.624 220.914 672.365 220.791 664.628 221.808 652.191 223.44 639.119 228.658 627.316 233.629 617.811 237.664 607.265 241.754 597.286 241.039 595.093 240.879 593.066 240.534 591.212 239.998 584.509 238.058 579.822 234.054 576.914 229.619 573.292 224.099 571.838 217.44 568.345 210.171 566.707 206.758 564.779 203.167 561.822 200.155 556.117 194.333 548.781 191.574 539.054 192.257 536.202 192.461 533.356 193.015 530.688 193.724 529.413 194.062 528.132 194.438 526.869 194.832 516.921 197.937 507.009 202.268 496.851 201.51 491.251 201.085 486.582 199.409 482.368 196.533 478.796 194.099 475.943 190.871 473.042 187.699 464.406 178.237 456.157 169.206 442.106 167.198 437.135 166.49 431.954 166.865 426.94 167.364 420.804 167.974 414.736 168.929 409.094 168.319 398.104 167.13 391.821 161.611 384.503 155.765 382.501 154.163 380.455 152.494 378.219 150.824 377.474 150.264 376.71 149.697 375.915 149.137 369.435 144.547 362.776 139.299 354.657 135.701 343.334 130.681 329.702 129.276 317.302 129.818 305.554 130.336 294.195 132.455 282.078 133.977 271.045 135.319 259.828 136.324 248.918 138.079 232.569 140.728 217.84 142.052 203.537 141.227 136.964 137.198 74.0385 89.1247 1.50307 108.88" stroke="url(#stroke42)" stroke-width="1.55235" stroke-linecap="butt" stroke-linejoin="miter" stroke-miterlimit="10" fill="none" fill-rule="nonzero" transform="matrix(1 0 0 1.00027 -130.943 17)"/><path d="M784.079 250.107C772.461 244.717 761.958 238.033 752.367 230.949 743.471 224.376 734.077 216.824 719.737 215.869 715.671 215.598 711.507 215.882 707.244 216.239 698.921 216.935 691.32 217.341 684.975 217.951 678.63 218.561 672.069 218.962 664.382 220.261 651.957 222.368 639.027 227.358 627.113 232.138 617.534 236.007 606.852 239.937 596.768 238.766 594.55 238.508 592.505 238.046 590.651 237.393 583.9 235.021 579.335 230.438 576.705 225.608 573.403 219.534 572.436 212.537 569.121 205.089 567.588 201.633 565.653 198.036 562.561 195.079 556.653 189.436 548.768 187.169 539.122 188.032 536.257 188.29 533.417 188.869 530.756 189.59 529.481 189.935 528.206 190.311 526.937 190.705 516.982 193.791 506.972 197.894 496.728 196.853 491.079 196.268 486.434 194.426 482.295 191.481 478.771 188.974 475.931 185.722 473.091 182.475 464.627 172.785 456.785 163.089 442.629 160.588 437.658 159.707 432.447 159.941 427.365 160.28 421.161 160.699 415.008 161.426 409.309 160.545 398.129 158.814 391.981 152.549 384.884 146.137 382.932 144.369 380.936 142.551 378.749 140.777 378.016 140.18 377.264 139.582 376.488 138.991 370.168 134.204 363.373 129.092 355.23 125.5 343.889 120.492 330.349 118.767 317.832 118.97 306.004 119.161 294.503 120.923 282.411 122.346 271.329 123.615 260.117 124.736 249.177 126.486 232.865 129.098 217.982 129.855 203.518 128.389 136.157 121.404 73.5827 68.2234 1.24434 87.9542" stroke="url(#stroke43)" stroke-width="1.61395" stroke-linecap="butt" stroke-linejoin="miter" stroke-miterlimit="10" fill="none" fill-rule="nonzero" transform="matrix(1 0 0 1.00027 -130.943 17)"/><path d="M784.079 251.031C772.529 244.76 762.087 237.35 752.632 229.495 743.872 222.22 734.613 213.867 720.198 212.383 716.09 211.958 711.907 212.136 707.656 212.493 699.433 213.183 691.782 214.089 685.197 215.142 678.612 216.196 671.761 217.12 664.123 218.715 651.704 221.302 638.922 226.058 626.891 230.653 617.244 234.362 606.427 238.101 596.232 236.499 593.99 236.136 591.932 235.563 590.066 234.793 583.265 231.984 578.83 226.84 576.477 221.61 573.495 214.988 573.015 207.645 569.879 200.019 568.444 196.526 566.51 192.917 563.282 190.021 557.171 184.551 548.744 182.777 539.177 183.824 536.307 184.138 533.467 184.742 530.812 185.475 529.536 185.826 528.261 186.202 526.986 186.596 517.025 189.658 506.91 193.545 496.592 192.214 490.9 191.475 486.274 189.467 482.214 186.442 478.746 183.861 475.919 180.584 473.141 177.258 464.849 167.34 457.408 156.978 443.159 153.985 438.194 152.937 432.946 153.017 427.79 153.202 421.525 153.43 415.279 153.923 409.525 152.771 398.16 150.498 392.153 143.488 385.266 136.502 383.363 134.568 381.416 132.609 379.273 130.718 378.558 130.083 377.819 129.449 377.049 128.833 370.889 123.843 363.959 118.872 355.79 115.287 344.431 110.297 330.983 108.246 318.349 108.11 306.448 107.981 294.793 109.379 282.731 110.71 271.6 111.905 260.395 113.149 249.43 114.88 233.161 117.455 218.111 117.64 203.494 115.539 135.356 105.603 73.1453 47.3159 0.99178 67.016" stroke="url(#stroke44)" stroke-width="1.66939" stroke-linecap="butt" stroke-linejoin="miter" stroke-miterlimit="10" fill="none" fill-rule="nonzero" transform="matrix(1 0 0 1.00027 -130.943 17)"/><path d="M784.079 251.955C772.603 244.809 762.204 236.672 752.903 228.042 744.266 220.077 735.149 210.904 720.661 208.896 716.515 208.323 712.307 208.397 708.075 208.754 699.95 209.438 692.25 210.855 685.431 212.339 678.414 213.886 671.472 215.29 663.876 217.169 651.476 220.237 638.829 224.758 626.688 229.163 616.967 232.711 606.014 236.284 595.721 234.226 593.454 233.764 591.378 233.081 589.511 232.194 582.668 228.953 578.355 223.249 576.273 217.606 573.625 210.442 573.618 202.754 570.661 194.943 569.325 191.407 567.391 187.785 564.027 184.958 557.713 179.654 548.744 178.385 539.257 179.611 536.374 179.986 533.541 180.609 530.892 181.354 529.617 181.711 528.341 182.087 527.066 182.481 517.105 185.524 506.886 189.184 496.487 187.563 490.746 186.664 486.151 184.483 482.159 181.397 478.746 178.736 475.931 175.434 473.208 172.034 465.089 161.888 458.048 150.868 443.701 147.369 438.736 146.155 433.457 146.087 428.233 146.112 421.901 146.149 415.568 146.408 409.753 144.991 398.203 142.169 392.338 134.42 385.661 126.862 383.806 124.761 381.909 122.66 379.815 120.658 379.112 119.987 378.392 119.322 377.634 118.675 371.628 113.488 364.568 108.652 356.382 105.079 345.004 100.108 331.649 97.7488 318.897 97.2499 306.916 96.8187 295.119 97.8412 283.082 99.0671 271.902 100.188 260.703 101.556 249.707 103.268 233.475 105.8 218.272 105.424 203.494 102.683 134.556 89.8023 72.7018 26.4146 0.745375 46.0839" stroke="url(#stroke45)" stroke-width="1.73099" stroke-linecap="butt" stroke-linejoin="miter" stroke-miterlimit="10" fill="none" fill-rule="nonzero" transform="matrix(1 0 0 1.00027 -130.943 17)"/><path d="M784.079 252.885C772.677 244.859 762.34 235.988 753.167 226.588 744.673 217.908 735.685 207.916 721.116 205.409 716.927 204.67 712.708 204.652 708.482 205.009 700.455 205.687 692.706 207.602 685.653 209.537 678.396 211.532 671.17 213.479 663.618 215.629 651.236 219.202 638.725 223.458 626.472 227.684 616.678 231.066 605.583 234.485 595.191 231.966 592.9 231.405 590.811 230.604 588.932 229.6 582.045 225.923 577.869 219.664 576.052 213.615 573.742 205.914 574.197 197.869 571.432 189.88 570.193 186.307 568.265 182.666 564.76 179.906 558.243 174.775 548.732 174.005 539.325 175.41 536.436 175.841 533.602 176.488 530.96 177.239 529.691 177.603 528.415 177.978 527.134 178.366 517.167 181.385 506.849 184.828 496.364 182.919 490.574 181.859 486.003 179.518 482.091 176.358 478.728 173.623 475.931 170.297 473.27 166.822 465.317 156.449 458.677 144.769 444.243 140.771 439.272 139.397 433.968 139.176 428.671 139.046 422.27 138.898 415.851 138.917 409.981 137.229 398.246 133.853 392.523 125.377 386.055 117.239 384.256 114.973 382.408 112.73 380.351 110.617 379.667 109.909 378.952 109.213 378.213 108.535 372.367 103.151 365.172 98.4573 356.961 94.8844 345.564 89.9255 332.302 87.2397 319.433 86.4081 307.378 85.6504 295.433 86.3156 283.421 87.4491 272.191 88.4963 260.998 89.9871 249.978 91.6811 233.789 94.176 218.426 93.2335 203.487 89.8516 133.755 74.0077 72.2582 5.51331 0.49281 25.1518" stroke="url(#stroke46)" stroke-width="1.78644" stroke-linecap="butt" stroke-linejoin="miter" stroke-miterlimit="10" fill="none" fill-rule="nonzero" transform="matrix(1 0 0 1.00027 -130.943 17)"/><path d="M784.079 253.809C772.744 244.902 762.475 235.292 753.438 225.134 745.079 215.746 736.227 204.978 721.578 201.923 709.381 199.372 697.036 203.087 685.88 206.728 666.008 213.214 646.135 219.701 626.263 226.194 616.394 229.415 605.164 232.668 594.667 229.693 583.82 226.619 577.807 217.84 575.836 209.611 573.865 201.381 574.776 192.972 572.202 184.804 571.062 181.188 569.134 177.535 565.493 174.837 556.69 168.325 542.152 169.902 531.027 173.118 519.902 176.334 508.167 180.75 496.241 178.274 470.245 172.865 469.783 141.911 444.773 134.161 433.814 130.767 421.057 133.028 410.196 129.449 394.962 124.428 390.077 110.759 380.88 100.558 367.636 85.8721 343.513 77.6545 319.963 75.5416 296.413 73.4287 273.035 76.6011 250.237 80.0693 158.654 93.9912 87.1411-19.5892 0.246405 4.21352" stroke="url(#stroke47)" stroke-width="1.84804" stroke-linecap="butt" stroke-linejoin="miter" stroke-miterlimit="10" fill="none" fill-rule="nonzero" transform="matrix(1 0 0 1.00027 -130.943 17)"/></g></g></g></g></g></svg>