<svg width="280" height="69" xmlns="http://www.w3.org/2000/svg" xmlns:xlink="http://www.w3.org/1999/xlink" xml:space="preserve" overflow="hidden"><g transform="translate(-76 -61)"><g><g><g><g><path d="M71.8706 42.8588 89.7904 67.6318 78.9559 67.6318C77.9468 67.6318 77.0207 67.1677 76.4118 66.3608L65.6582 51.3343 61.2618 57.4829C56.7058 63.8528 49.3565 67.6318 41.5261 67.6318L59.4416 42.8524 42.1924 19.674 53.1653 19.674C54.1744 19.674 55.1197 20.168 55.6967 20.9962 55.6988 21.0004 55.703 21.0047 55.7052 21.0089L65.6582 34.4195 69.1285 29.7399C73.8251 23.4083 81.2425 19.6762 89.1261 19.6762L71.8706 42.8609ZM26.2484 57.4871C24.8582 58.1365 23.321 58.5878 21.7285 58.5878 18.501 58.5878 15.7439 57.4573 13.3233 55.158 11.107 52.9353 9.95731 50.3933 9.80828 47.3829L9.80828 39.9506C9.94241 36.9338 11.0857 34.4088 13.3147 32.2224 15.6843 29.8549 18.435 28.7031 21.7285 28.7031 25.0221 28.7031 27.7515 29.8592 30.1019 32.2522 31.9924 34.1129 33.108 36.2291 33.487 38.686L27.9601 38.6945C25.2435 38.6988 22.7866 39.8016 21.0068 41.5814 19.2227 43.3634 18.1199 45.8245 18.1178 48.5454L38.7328 48.5454C41.343 48.5454 43.4592 46.4291 43.4592 43.819L43.4592 40.585C43.4592 34.5515 41.294 29.3801 37.036 25.2265 32.8078 20.9983 27.6599 18.8523 21.7307 18.8523 15.8014 18.8523 10.6322 21.0153 6.35505 25.2818 2.13751 29.5058 0 34.6537 0 40.5829L0 46.6506C0 52.6224 2.13751 57.7916 6.35505 62.0113L6.48918 62.1305C10.7195 65.9158 15.8461 67.8341 21.7285 67.8341 27.6109 67.8341 33.1357 65.7476 37.4192 61.6238L39.3204 59.7545C35.8906 56.2928 30.6639 55.422 26.2484 57.485L26.2484 57.4893ZM168.885 25.2243C164.657 20.9962 159.509 18.8501 153.579 18.8501 147.65 18.8501 142.481 21.0132 138.204 25.2797 133.988 29.5036 131.851 34.6537 131.851 40.5829L131.851 46.6506C131.851 52.6224 133.988 57.7916 138.206 62.0113L138.34 62.1305C142.57 65.9158 147.697 67.8341 153.579 67.8341 159.462 67.8341 164.987 65.7476 169.27 61.6238L171.171 59.7545C167.741 56.2928 162.515 55.422 158.099 57.485 156.709 58.1344 155.172 58.5857 153.579 58.5857 150.352 58.5857 147.595 57.4552 145.174 55.1559 142.958 52.9332 141.808 50.3912 141.659 47.3808L141.659 39.9485C141.793 36.9317 142.937 34.4067 145.166 32.2202 147.535 29.8528 150.286 28.701 153.579 28.701 156.873 28.701 159.602 29.857 161.953 32.25 163.843 34.1108 164.959 36.227 165.338 38.6838L159.811 38.6924C157.094 38.6966 154.637 39.7994 152.858 41.5793 151.076 43.3613 149.971 45.8224 149.969 48.5432L170.584 48.5432C173.194 48.5432 175.31 46.427 175.31 43.8169L175.31 40.5829C175.31 34.5493 173.145 29.378 168.887 25.2243L168.885 25.2243ZM221.013 18.8501C215.086 18.8501 209.915 21.0132 205.64 25.2818L205.595 25.3265C201.405 29.5419 199.28 34.6749 199.28 40.5829L199.28 67.6318C204.688 67.6318 209.072 63.2482 209.072 57.8406L209.072 40.5829C209.072 37.2894 210.223 34.5557 212.602 32.216 214.963 29.8506 217.715 28.6989 221.013 28.6989 222.61 28.6989 224.03 28.948 225.354 29.461 226.5 29.906 227.796 29.6292 228.654 28.7585L234.277 23.0485 231.618 21.5646C228.435 19.7869 224.769 18.848 221.011 18.848ZM277.994 40.6063C277.994 34.6239 275.856 29.4547 271.643 25.2414 267.423 21.0196 262.254 18.8778 256.276 18.8778 250.298 18.8778 245.169 21.043 240.902 25.3138 236.691 29.5356 234.556 34.6792 234.556 40.6085L234.556 46.6782C234.556 52.6415 236.691 57.8086 240.9 62.0347L241.09 62.2007C245.011 65.6816 249.876 67.7595 254.102 67.7595 260.383 67.7595 264.805 64.2808 264.99 64.1317L266.144 63.2078 265.805 62.8607C261.662 58.7177 254.662 58.6091 254.643 58.6091 254.306 58.6091 253.97 58.5814 253.632 58.5282 251.805 58.2365 249.944 57.1465 247.877 55.1772 245.497 52.7991 244.341 50.0208 244.341 46.6782L244.341 40.6085C244.341 37.317 245.49 34.5834 247.86 32.2458 250.229 29.8805 252.982 28.7308 256.278 28.7308 259.574 28.7308 262.294 29.8868 264.653 32.2756 267.004 34.6047 268.145 37.3319 268.145 40.6085L268.145 55.6072C268.126 56.0352 268.015 58.9774 269.116 61.3534L269.211 61.5663C269.842 62.9331 270.755 64.1339 271.922 65.1281 273.216 66.2501 274.717 67.008 276.382 67.3806L278 67.7425 277.994 40.6063ZM181.584 0 181.584 56.808C181.584 59.8567 182.623 62.4371 184.669 64.4702 186.123 65.9243 187.829 66.8909 189.74 67.3401L191.371 67.7234 191.371 9.78699C191.371 4.38147 186.99 0 181.584 0ZM120.499 21.1558C120.452 21.1324 120.405 21.1111 120.359 21.0898 120.248 21.0366 120.137 20.9834 120.024 20.9323 119.897 20.8748 119.767 20.8173 119.639 20.762 119.607 20.7492 119.575 20.7343 119.543 20.7194 116.961 19.623 114.146 19.0354 111.117 18.9672L111.031 18.9672C110.861 18.963 110.689 18.9608 110.516 18.9608 104.925 18.9608 100.016 20.696 95.9113 24.1173 95.7005 24.2918 95.4918 24.4707 95.2853 24.6538L95.1427 24.7836C90.9188 29.0182 88.777 34.1874 88.777 40.1507L88.777 46.6527C88.777 52.6139 90.9188 57.7831 95.1448 62.0134L95.2193 62.0815 95.1704 62.1326C99.4007 65.918 104.527 67.8362 110.41 67.8362L110.518 67.8362C116.605 67.8106 121.845 65.7264 126.1 61.6259L128.002 59.7566C124.572 56.2949 119.345 55.4241 114.93 57.4871 113.546 58.1344 112.015 58.5836 110.429 58.5857 107.244 58.5644 104.515 57.436 102.111 55.1559 99.8818 52.9226 98.73 50.3806 98.5874 47.3851L98.581 39.5653 98.5853 39.4865C98.7237 36.4505 99.8712 33.8936 102.07 31.6901 103.85 29.9933 105.792 28.9309 107.951 28.4732 108.773 28.3007 109.626 28.2113 110.518 28.2113 112.111 28.2113 113.648 28.6627 115.038 29.312 119.454 31.375 124.68 30.5064 128.11 27.0425L126.209 25.1732C124.467 23.4956 122.562 22.1565 120.501 21.1558Z" fill="#2D3142" fill-rule="nonzero" fill-opacity="1" transform="matrix(1 0 0 1.00142 77 62.0337)"/></g></g></g></g></g></svg>